<?xml version="1.0" encoding="UTF-8"?>
<!DOCTYPE svg PUBLIC "-//W3C//DTD SVG 1.1//EN" "http://www.w3.org/Graphics/SVG/1.1/DTD/svg11.dtd">
<svg version="1.1" xmlns="http://www.w3.org/2000/svg" xmlns:xlink="http://www.w3.org/1999/xlink" x="0" y="0" width="394" height="463" viewBox="0, 0, 394, 463">
  <defs>
    <radialGradient id="Gradient_1" gradientUnits="userSpaceOnUse" cx="-119" cy="561.5" r="1">
      <stop offset="0" stop-color="#EB968C"/>
      <stop offset="1" stop-color="#F5C2A6"/>
    </radialGradient>
    <radialGradient id="Gradient_2" gradientUnits="userSpaceOnUse" cx="-119" cy="561.5" r="1">
      <stop offset="0" stop-color="#EB968C"/>
      <stop offset="1" stop-color="#F5C2A6"/>
    </radialGradient>
  </defs>
  <g id="Layer_1">
    <path d="M355.166,158.782 C357.158,190.813 356.189,249.837 389.205,279.829 C389.205,279.829 380.174,288.837 355.166,281.837 L364.197,314.852 C364.197,314.852 319.166,337.86 271.143,309.852 C223.127,281.837 355.166,158.782 355.166,158.782" fill="#48402C"/>
    <path d="M355.166,158.782 L351.628,159.002 C352.121,166.928 352.436,176.649 353.145,187.228 C354.214,203.103 356.163,220.923 361.047,237.781 C363.491,246.21 366.672,254.404 370.874,261.984 C375.075,269.563 380.303,276.532 386.821,282.453 L389.205,279.829 L386.702,277.319 L387.882,278.502 L386.751,277.271 L386.702,277.319 L387.882,278.502 L386.751,277.271 C386.742,277.278 385.761,278.183 383.512,279.101 C381.262,280.016 377.734,280.953 372.559,280.956 C368.27,280.955 362.847,280.305 356.121,278.423 C354.89,278.078 353.573,278.422 352.667,279.323 C351.76,280.224 351.41,281.539 351.747,282.772 L360.778,315.788 L364.197,314.852 L362.584,311.695 L362.739,311.997 L362.586,311.695 L362.584,311.695 L362.739,311.997 L362.586,311.695 C362.471,311.753 358.216,313.89 351.055,316.001 C343.893,318.114 333.831,320.199 322.091,320.198 C307.566,320.192 290.503,317.033 272.928,306.79 C269.723,304.911 267.629,302.7 266.24,300.124 C264.86,297.546 264.177,294.52 264.175,290.967 C264.168,286.092 265.51,280.275 267.995,273.918 C272.329,262.784 280.102,250.05 289.331,237.352 C303.172,218.288 320.263,199.252 333.873,185.021 C340.678,177.904 346.615,171.984 350.845,167.848 C352.961,165.779 354.649,164.157 355.807,163.054 C356.386,162.502 356.832,162.081 357.132,161.798 C357.282,161.656 357.396,161.55 357.472,161.479 L357.583,161.375 L355.166,158.782 L351.628,159.002 L355.166,158.782 L352.749,156.188 C352.693,156.243 328.991,178.328 305.208,206.035 C293.314,219.895 281.399,235.152 272.379,249.863 C267.869,257.222 264.081,264.445 261.39,271.342 C258.704,278.241 257.092,284.821 257.085,290.967 C257.082,295.428 257.962,299.69 259.992,303.473 C262.012,307.259 265.174,310.483 269.356,312.914 C288.123,323.863 306.544,327.293 322.091,327.287 C334.87,327.286 345.728,324.992 353.423,322.694 C361.119,320.394 365.658,318.086 365.81,318.009 C367.306,317.245 368.06,315.538 367.616,313.917 L358.585,280.901 L355.166,281.837 L354.211,285.25 C361.48,287.285 367.551,288.045 372.559,288.045 C379.001,288.048 383.678,286.778 386.79,285.412 C389.905,284.048 391.443,282.604 391.708,282.339 C392.398,281.651 392.772,280.72 392.749,279.746 C392.726,278.773 392.309,277.859 391.589,277.205 C383.773,270.105 377.906,261.23 373.474,251.32 C366.825,236.463 363.465,219.305 361.629,202.856 C359.787,186.4 359.456,170.69 358.704,158.562 C358.619,157.197 357.749,155.996 356.479,155.489 C355.208,154.983 353.75,155.256 352.749,156.188 L355.166,158.782" fill="#48402C"/>
    <path d="M40.518,158.782 C38.525,190.813 39.549,249.837 6.525,279.829 C6.525,279.829 15.518,288.837 40.518,281.837 L31.541,314.852 C31.541,314.852 76.533,337.86 124.549,309.852 C172.619,281.837 40.518,158.782 40.518,158.782" fill="#48402C"/>
    <path d="M40.518,158.782 L36.98,158.562 C36.477,166.653 36.168,176.322 35.473,186.755 C34.433,202.4 32.513,219.752 27.863,235.809 C25.54,243.837 22.539,251.538 18.654,258.548 C14.768,265.56 10.006,271.878 4.142,277.205 C3.421,277.859 3.005,278.769 2.982,279.742 C2.958,280.716 3.329,281.644 4.017,282.333 C4.282,282.601 5.816,284.046 8.925,285.41 C12.032,286.777 16.702,288.048 23.137,288.045 C28.14,288.045 34.206,287.284 41.473,285.25 L40.518,281.837 L37.097,280.907 L28.12,313.922 C27.679,315.543 28.431,317.243 29.927,318.008 C30.079,318.085 34.614,320.394 42.305,322.694 C49.995,324.992 60.846,327.286 73.618,327.287 C89.158,327.293 107.572,323.863 126.335,312.915 C130.522,310.483 133.689,307.257 135.712,303.469 C137.745,299.683 138.626,295.418 138.624,290.954 C138.617,284.807 137.004,278.227 134.318,271.328 C129.604,259.265 121.542,246.17 112.107,233.174 C97.955,213.695 80.689,194.49 66.941,180.117 C53.194,165.747 42.969,156.222 42.934,156.188 C41.933,155.255 40.475,154.983 39.205,155.489 C37.934,155.996 37.064,157.197 36.98,158.562 L40.518,158.782 L38.101,161.376 C38.102,161.376 38.187,161.456 38.362,161.62 C41.078,164.169 64.581,186.41 87.31,213.224 C98.672,226.625 109.839,241.176 118.089,254.884 C122.215,261.735 125.609,268.373 127.942,274.499 C130.282,280.624 131.54,286.23 131.534,290.954 C131.531,294.51 130.847,297.538 129.465,300.118 C128.074,302.695 125.976,304.908 122.764,306.79 C105.191,317.033 88.135,320.192 73.618,320.198 C61.7,320.199 51.512,318.048 44.336,315.901 C40.749,314.829 37.915,313.758 35.998,312.965 C35.039,312.569 34.309,312.242 33.829,312.019 C33.589,311.907 33.411,311.822 33.297,311.767 L33.177,311.707 L33.153,311.695 L32.96,312.077 L33.155,311.696 L33.153,311.695 L32.96,312.077 L33.155,311.696 L31.541,314.852 L34.962,315.782 L43.938,282.767 C44.273,281.533 43.922,280.221 43.015,279.321 C42.108,278.42 40.793,278.078 39.562,278.423 C32.837,280.305 27.42,280.955 23.137,280.956 C17.625,280.953 13.988,279.887 11.776,278.919 C10.67,278.433 9.92,277.968 9.477,277.657 C9.256,277.502 9.112,277.385 9.04,277.324 L8.985,277.276 L7.842,278.514 L9.034,277.324 L8.985,277.276 L7.842,278.514 L9.034,277.324 L6.525,279.829 L8.909,282.453 C17.604,274.556 23.994,264.805 28.725,254.212 C35.819,238.314 39.237,220.491 41.117,203.642 C42.991,186.8 43.314,170.896 44.056,159.002 L40.518,158.782 L38.101,161.376 L40.518,158.782" fill="#48402C"/>
    <path d="M190.979,51.907 C141.447,34.548 86.385,60.563 56.104,112.587 C25.822,164.61 40.955,215.399 53.322,246.368 C65.729,277.337 331.619,303.61 353.455,205.509 C374.072,112.587 304.51,56.688 251.564,48.188 C213.018,41.97 190.979,51.907 190.979,51.907" fill="#48402C"/>
    <path d="M190.979,51.907 L192.151,48.561 C181.427,44.803 170.437,43.002 159.499,43.003 C138.773,43.003 118.257,49.454 99.893,61.142 C81.526,72.832 65.288,89.761 53.04,110.803 C39.598,133.883 34.848,156.853 34.856,177.92 C34.861,205.549 42.946,229.93 50.03,247.683 L50.032,247.686 C50.583,249.058 51.404,250.292 52.402,251.428 C54.282,253.555 56.792,255.391 59.869,257.141 C65.254,260.186 72.43,262.934 81.096,265.435 C94.086,269.176 110.408,272.315 128.641,274.534 C146.871,276.751 167.002,278.041 187.551,278.041 C225.074,278.032 263.965,273.765 295.278,262.81 C310.934,257.323 324.718,250.156 335.456,240.862 C340.821,236.214 345.42,231.029 349.062,225.267 C352.704,219.507 355.383,213.169 356.915,206.279 L356.916,206.276 C359.511,194.578 360.713,183.422 360.713,172.84 C360.715,154.033 356.911,137.044 350.45,122.075 C340.756,99.613 325.123,81.713 307.478,68.716 C289.823,55.72 270.158,47.589 252.126,44.688 L252.129,44.688 C242.753,43.176 234.313,42.596 226.892,42.596 C203.17,42.596 189.882,48.512 189.521,48.675 L190.979,51.907 L192.151,48.561 L190.979,51.907 L192.436,55.139 L191.773,53.669 L192.428,55.142 L192.436,55.139 L191.773,53.669 L192.428,55.142 C192.462,55.128 204.711,49.686 226.892,49.686 C233.944,49.686 242.003,50.236 251,51.688 L251.003,51.688 C262.187,53.482 274.249,57.498 286.006,63.64 C303.647,72.851 320.584,86.833 333.064,105.141 C345.546,123.457 353.616,146.066 353.623,172.84 C353.623,182.885 352.484,193.521 349.994,204.741 L349.995,204.738 C348.639,210.822 346.296,216.371 343.068,221.479 C337.425,230.411 329.034,238.01 318.489,244.374 C302.683,253.922 282.078,260.618 259.359,264.866 C236.64,269.122 211.816,270.953 187.551,270.952 C154.637,270.954 122.729,267.581 98.495,262.434 C86.384,259.866 76.184,256.842 68.842,253.663 C65.174,252.079 62.226,250.451 60.156,248.915 C59.121,248.149 58.309,247.41 57.726,246.747 C57.141,246.082 56.792,245.5 56.613,245.05 L56.614,245.053 C49.666,227.666 41.94,204.155 41.945,177.92 C41.953,157.901 46.403,136.312 59.167,114.37 C70.876,94.252 86.352,78.162 103.7,67.123 C121.052,56.081 140.254,50.092 159.499,50.092 C169.661,50.093 179.841,51.76 189.806,55.252 C190.661,55.552 191.61,55.511 192.436,55.139 L190.979,51.907" fill="#48402C"/>
    <path d="M218.049,327.806 C233.682,326.243 258.682,330.931 294.635,358.274 C313.596,372.72 322.002,378.602 330.596,395.798 C339.182,412.985 323.994,421.188 300.549,412.61 C283.15,406.22 244.619,387.72 232.9,382.251 C221.174,376.782 218.049,327.806 218.049,327.806" fill="#519CC4"/>
    <path d="M218.049,327.806 L218.402,331.332 C219.995,331.173 221.697,331.082 223.513,331.082 C230.915,331.083 240.234,332.575 251.681,337.071 C263.124,341.568 276.688,349.077 292.489,361.096 L292.487,361.094 C301.99,368.33 308.74,373.362 314.024,378.539 C316.671,381.13 318.97,383.758 321.138,386.778 C323.304,389.798 325.343,393.217 327.425,397.382 C328.901,400.331 329.481,402.797 329.477,404.676 C329.474,405.985 329.216,407.014 328.779,407.888 C328.448,408.544 328.008,409.124 327.42,409.663 C326.542,410.467 325.305,411.177 323.654,411.687 C322.009,412.198 319.963,412.497 317.582,412.496 C313.259,412.499 307.849,411.509 301.767,409.281 L301.771,409.283 C297.539,407.729 291.908,405.393 285.702,402.689 C276.388,398.633 265.759,393.746 256.366,389.363 C246.97,384.978 238.818,381.101 234.399,379.039 C234.113,378.906 233.732,378.652 233.293,378.216 C232.465,377.409 231.484,375.97 230.568,374.075 C228.948,370.756 227.497,366.102 226.324,361.074 C224.553,353.522 223.357,345.107 222.617,338.615 C222.247,335.368 221.988,332.598 221.823,330.645 C221.74,329.669 221.681,328.898 221.642,328.373 C221.623,328.11 221.609,327.909 221.6,327.775 C221.59,327.642 221.586,327.58 221.586,327.58 L218.049,327.806 L218.402,331.332 L218.049,327.806 L214.511,328.031 C214.517,328.104 215.3,340.429 217.585,353.584 C218.732,360.17 220.243,366.955 222.3,372.644 C223.334,375.492 224.5,378.072 225.921,380.269 C226.634,381.368 227.414,382.374 228.31,383.26 C229.204,384.143 230.222,384.912 231.402,385.463 C237.232,388.184 249.816,394.186 263.113,400.305 C269.763,403.365 276.596,406.456 282.871,409.189 C289.15,411.923 294.859,414.296 299.327,415.937 L299.331,415.939 C306.044,418.392 312.2,419.582 317.582,419.585 C320.218,419.585 322.672,419.298 324.917,418.7 C326.6,418.251 328.167,417.626 329.585,416.805 C331.711,415.578 333.507,413.881 334.727,411.784 C335.954,409.69 336.571,407.241 336.567,404.676 C336.562,401.377 335.599,397.887 333.767,394.213 C331.552,389.781 329.317,386.016 326.898,382.645 C323.27,377.585 319.237,373.446 314.393,369.275 C309.544,365.099 303.88,360.862 296.783,355.455 L296.781,355.453 C280.558,343.115 266.444,335.256 254.274,330.473 C242.107,325.69 231.876,323.991 223.513,323.993 C221.46,323.993 219.521,324.096 217.696,324.278 C215.802,324.468 214.39,326.131 214.511,328.031 L218.049,327.806" fill="#519CC4"/>
    <path d="M163.377,327.806 C147.752,326.243 122.744,330.931 86.783,358.274 C67.838,372.72 59.822,375.477 51.229,392.673 C42.627,409.876 51.611,420.032 72.713,414.938 C88.346,411.181 136.814,385.954 148.525,380.477 C160.26,375.009 163.377,327.806 163.377,327.806" fill="#519CC4"/>
    <path d="M163.377,327.806 L163.73,324.278 C161.906,324.096 159.967,323.993 157.914,323.993 C149.553,323.991 139.322,325.69 127.153,330.473 C114.981,335.256 100.863,343.114 84.637,355.453 L84.634,355.455 C75.272,362.6 68.562,366.864 62.824,371.745 C59.963,374.183 57.367,376.784 54.946,379.899 C52.524,383.015 50.286,386.627 48.058,391.088 C45.698,395.818 44.451,400.227 44.443,404.308 C44.442,406.586 44.848,408.767 45.711,410.739 C46.355,412.217 47.257,413.569 48.375,414.726 C50.054,416.466 52.197,417.751 54.623,418.577 C57.054,419.406 59.776,419.797 62.763,419.798 C66.03,419.797 69.623,419.329 73.544,418.384 C75.726,417.858 78.29,417.014 81.216,415.925 C86.327,414.019 92.512,411.358 99.116,408.353 C109.016,403.847 119.84,398.57 129.153,393.97 C133.809,391.669 138.087,389.539 141.674,387.762 C145.259,385.986 148.164,384.559 150.027,383.688 L150.023,383.69 C151.187,383.147 152.199,382.395 153.092,381.531 C154.763,379.904 156.064,377.881 157.218,375.591 C159.219,371.582 160.746,366.693 162.002,361.53 C163.875,353.795 165.091,345.465 165.852,339.033 C166.612,332.604 166.911,328.083 166.914,328.039 C167.04,326.128 165.635,324.469 163.73,324.278 L163.377,327.806 L159.84,327.572 L159.831,327.694 C159.742,329.003 158.875,340.727 156.652,352.612 C155.546,358.546 154.088,364.529 152.305,369.149 C151.419,371.456 150.447,373.416 149.49,374.816 C149.013,375.516 148.543,376.074 148.119,376.477 C147.694,376.882 147.321,377.128 147.028,377.264 L147.024,377.266 C144.013,378.675 138.8,381.273 132.362,384.469 C122.715,389.256 110.363,395.363 98.997,400.608 C93.316,403.23 87.88,405.637 83.177,407.548 C78.484,409.458 74.48,410.873 71.884,411.492 C68.406,412.331 65.346,412.71 62.763,412.709 C60.663,412.709 58.883,412.459 57.44,412.034 C56.356,411.716 55.463,411.304 54.734,410.831 C53.642,410.115 52.905,409.288 52.375,408.255 C51.851,407.223 51.535,405.94 51.533,404.308 C51.525,401.726 52.378,398.288 54.399,394.258 C56.468,390.12 58.454,386.94 60.544,384.25 C63.678,380.224 67.079,377.23 71.612,373.799 C76.135,370.376 81.749,366.569 88.932,361.093 L88.929,361.096 C104.733,349.078 118.3,341.568 129.746,337.071 C141.195,332.575 150.514,331.083 157.914,331.082 C159.73,331.082 161.432,331.173 163.024,331.332 L163.377,327.806 L159.84,327.572 L163.377,327.806" fill="#519CC4"/>
    <path d="M124.049,450.267 C124.049,450.267 120.924,429.259 138.658,377.157 C151.76,338.642 169.924,328.196 193.908,329.22 C225.135,330.587 243.775,361.063 251.455,390.97 C259.518,422.118 263.127,450.267 263.127,450.267 C263.127,450.267 231.424,457.392 185.564,456.368 C139.689,455.321 124.049,450.267 124.049,450.267" fill="#519CC4"/>
    <path d="M124.049,450.267 L127.555,449.745 L127.527,449.748 L127.555,449.745 L127.527,449.748 L127.555,449.745 C127.535,449.587 127.381,448.316 127.381,445.808 C127.38,437.677 128.999,416.532 142.014,378.299 C145.086,369.268 148.419,361.886 151.981,355.929 C157.335,346.985 163.145,341.274 169.486,337.717 C172.663,335.938 175.993,334.691 179.536,333.879 C183.078,333.068 186.835,332.696 190.828,332.696 C191.792,332.696 192.766,332.717 193.75,332.761 L193.753,332.761 C200.998,333.082 207.441,335.066 213.257,338.33 C221.97,343.219 229.27,351.069 235.088,360.51 C240.906,369.941 245.219,380.927 248.022,391.851 L248.023,391.858 C252.022,407.306 254.924,422.046 256.823,432.909 C257.772,438.34 258.47,442.803 258.931,445.902 C259.161,447.452 259.332,448.661 259.444,449.48 C259.501,449.889 259.543,450.201 259.57,450.41 C259.598,450.618 259.611,450.717 259.611,450.717 L263.127,450.267 L262.35,446.808 L262.338,446.811 C261.675,446.959 234.539,452.925 194.587,452.923 C191.673,452.923 188.689,452.891 185.643,452.824 L185.645,452.824 C162.829,452.303 147.589,450.787 138.111,449.416 C133.371,448.731 130.072,448.082 127.986,447.614 C126.943,447.379 126.203,447.19 125.738,447.064 C125.506,447.001 125.342,446.954 125.243,446.925 L125.143,446.894 L125.129,446.89 L124.642,448.43 L125.139,446.893 L125.129,446.89 L124.642,448.43 L125.139,446.893 L124.049,450.267 L127.555,449.745 L124.049,450.267 L122.959,453.64 C123.408,453.781 139.367,458.857 185.484,459.912 L185.486,459.912 C188.585,459.98 191.621,460.013 194.587,460.013 C235.887,460.011 263.72,453.765 263.904,453.725 C265.689,453.324 266.876,451.629 266.643,449.815 C266.63,449.728 263.011,421.477 254.887,390.081 L254.888,390.088 C250.942,374.751 244.217,359.224 234.245,347.135 C229.256,341.096 223.437,335.918 216.73,332.149 C210.028,328.378 202.432,326.04 194.063,325.678 L194.066,325.678 C192.974,325.629 191.895,325.606 190.828,325.606 C184.92,325.606 179.248,326.34 173.86,328.101 C169.821,329.419 165.95,331.316 162.297,333.869 C156.814,337.698 151.843,342.982 147.37,349.917 C142.895,356.855 138.898,365.448 135.302,376.016 C122.091,414.83 120.293,436.734 120.292,445.808 C120.292,449.005 120.516,450.607 120.543,450.788 C120.74,452.119 121.678,453.226 122.959,453.64 L124.049,450.267" fill="#519CC4"/>
    <path d="M209.635,331.806 C209.635,331.806 229.322,345.876 208.221,357.587 C187.127,369.329 148.033,355.251 172.127,331.806 L209.635,331.806" fill="#E4B29E"/>
    <path d="M84.932,214.47 C77.799,205.095 67.635,199.493 57.775,199.493 C50.244,199.493 43.252,202.704 37.596,208.704 C33.643,212.931 28.408,219.548 26.314,227.095 C23.768,236.165 25.572,245.735 31.447,254.017 C39.205,264.985 52.979,272.36 65.729,272.36 C79.463,272.36 89.377,264.102 92.994,249.602 C95.572,237.376 92.596,224.579 84.932,214.47" fill="#F5C2A6"/>
    <path d="M308.65,214.47 C315.752,205.095 325.908,199.493 335.76,199.493 C343.299,199.493 350.283,202.704 355.947,208.704 C359.947,212.931 365.135,219.548 367.229,227.095 C369.822,236.165 367.955,245.735 362.096,254.017 C354.338,264.985 340.564,272.36 327.814,272.36 C314.143,272.36 304.205,264.102 300.549,249.602 C298.01,237.376 300.947,224.579 308.65,214.47" fill="#F5C2A6"/>
    <path d="M166.9,101.876 C199.479,94.735 277.002,104.142 311.447,146.837 C345.83,189.548 348.611,285.079 266.018,323.298 C183.408,361.501 85.705,322.235 65.729,273.298 C45.76,224.384 54.002,126.626 166.9,101.876" fill="#F5C2A6"/>
    <path d="M244.666,258.868 C261.416,296.907 315.791,273.915 302.314,242.313 C300.01,237.032 296.197,231.759 292.4,228.782 C273.643,214.204 250.979,226.165 245.549,243.142 C244.025,247.829 243.494,254.142 244.666,258.868" fill="url(#Gradient_1)"/>
    <path d="M77.658,258.868 C94.361,296.907 148.775,273.915 135.244,242.313 C132.994,237.032 129.182,231.759 125.33,228.782 C106.619,214.204 83.955,226.165 78.486,243.142 C77.01,247.829 76.424,254.142 77.658,258.868" fill="url(#Gradient_2)"/>
    <path d="M182.996,249.046 C183.914,246.356 186.15,239.442 190.179,240.292 C193.595,241.013 195.815,245.107 197.16,247.951 C199.358,252.599 206.233,248.548 204.047,243.926 C201.298,238.114 196.724,233.122 190.113,232.268 C181.985,231.216 177.408,240.767 175.305,246.925 C173.638,251.806 181.344,253.884 182.996,249.046" fill="#2D2118"/>
    <path d="M263.107,212.875 C262.782,212.762 259.495,211.562 254.648,211.554 C252.66,211.554 250.408,211.762 248.015,212.359 C244.43,213.249 240.525,215.047 236.901,218.211 C233.271,221.371 229.953,225.852 227.312,231.948 C226.593,233.604 226.95,235.528 228.216,236.816 C229.481,238.105 231.398,238.496 233.067,237.808 L232.146,235.575 L233.06,237.811 L233.067,237.808 L232.146,235.575 L233.06,237.811 C233.06,237.811 233.172,237.765 233.392,237.682 C234.164,237.39 236.227,236.656 238.988,236.007 C241.748,235.356 245.206,234.796 248.727,234.798 C252.195,234.796 255.688,235.339 258.73,236.713 C260.961,237.717 263.584,236.723 264.589,234.492 C265.593,232.26 264.599,229.637 262.368,228.633 C257.826,226.592 253.085,225.939 248.727,225.936 C243.572,225.94 238.898,226.853 235.46,227.754 C232.023,228.658 229.825,229.559 229.687,229.616 L231.377,233.712 L235.442,235.475 C236.912,232.087 238.542,229.488 240.206,227.484 C242.708,224.481 245.271,222.784 247.734,221.757 C250.194,220.739 252.591,220.416 254.648,220.415 C256.313,220.415 257.741,220.631 258.713,220.841 C259.199,220.945 259.571,221.047 259.801,221.115 C259.916,221.149 259.995,221.175 260.035,221.188 L260.037,221.188 C262.332,222.036 264.881,220.863 265.729,218.567 C266.576,216.272 265.403,213.724 263.108,212.876" fill="#2D2118"/>
    <path d="M123.694,221.188 L123.695,221.188 C123.979,221.089 126.167,220.411 129.082,220.415 C130.451,220.415 131.979,220.56 133.57,220.957 C135.96,221.56 138.49,222.699 141.021,224.895 C143.546,227.095 146.104,230.395 148.322,235.481 L152.385,233.712 L154.076,229.616 C153.938,229.56 151.741,228.658 148.305,227.754 C144.866,226.853 140.191,225.94 135.03,225.936 C130.668,225.939 125.921,226.592 121.368,228.629 C119.135,229.631 118.137,232.253 119.138,234.486 C120.14,236.719 122.762,237.718 124.995,236.716 C128.054,235.339 131.557,234.796 135.03,234.798 C139.125,234.795 143.127,235.553 146.052,236.325 C147.515,236.709 148.711,237.094 149.523,237.375 C149.928,237.516 150.238,237.631 150.438,237.707 C150.538,237.746 150.611,237.774 150.654,237.791 L150.696,237.809 L150.701,237.81 L151.606,235.597 L150.694,237.807 L150.701,237.81 L151.606,235.597 L150.694,237.807 C152.362,238.496 154.283,238.103 155.548,236.815 C156.812,235.526 157.168,233.598 156.447,231.942 C154.678,227.878 152.616,224.535 150.355,221.819 C146.971,217.741 143.123,215.105 139.387,213.568 C135.65,212.023 132.061,211.553 129.082,211.554 C124.235,211.562 120.948,212.762 120.622,212.875 C118.327,213.724 117.153,216.272 118.001,218.568 C118.85,220.863 121.398,222.037 123.694,221.189" fill="#2D2118"/>
    <path d="M145.752,288.915 C149.51,274.415 166.846,261.657 191.072,261.657 C215.299,261.657 244.768,277.22 239.541,300.157 C233.283,327.462 209.393,309.188 191.416,309.188 C173.439,309.188 167.627,317.001 155.908,314.61 C144.182,312.188 142.627,300.97 145.752,288.915" fill="#C04841"/>
    <path d="M145.752,288.915 L148.778,289.699 C149.599,286.533 151.178,283.398 153.474,280.465 C156.914,276.067 161.968,272.137 168.342,269.317 C174.715,266.496 182.399,264.783 191.072,264.783 C196.343,264.782 201.939,265.567 207.327,267.047 C215.412,269.26 223.015,273.059 228.423,277.899 C231.131,280.317 233.29,282.981 234.758,285.813 C236.226,288.65 237.02,291.643 237.023,294.869 C237.023,296.344 236.855,297.871 236.493,299.463 L236.494,299.458 C235.874,302.166 235.084,304.303 234.2,305.957 C232.862,308.442 231.385,309.841 229.718,310.745 C228.048,311.64 226.063,312.046 223.681,312.047 C221.564,312.049 219.169,311.715 216.615,311.178 C212.78,310.377 208.599,309.127 204.341,308.051 C200.077,306.979 195.729,306.067 191.416,306.062 C183.231,306.053 177.277,307.637 172.484,309.143 C170.088,309.894 167.983,310.612 166.018,311.12 C164.05,311.63 162.233,311.937 160.303,311.938 C159.122,311.938 157.889,311.822 156.532,311.546 L156.426,311.524 L156.541,311.548 C154.77,311.182 153.377,310.604 152.258,309.886 C150.587,308.804 149.467,307.413 148.669,305.582 C147.88,303.756 147.472,301.473 147.474,298.863 C147.472,296.08 147.935,292.945 148.778,289.7 L142.726,288.13 C141.781,291.776 141.223,295.398 141.221,298.863 C141.221,301.026 141.44,303.13 141.944,305.135 C142.695,308.135 144.121,310.938 146.378,313.154 C148.628,315.375 151.654,316.931 155.276,317.672 L155.381,317.693 L155.285,317.674 C157.038,318.031 158.707,318.191 160.303,318.191 C162.914,318.192 165.308,317.765 167.588,317.173 C171.016,316.278 174.208,315.048 177.916,314.069 C181.625,313.088 185.862,312.318 191.416,312.314 C193.685,312.313 196.182,312.65 198.801,313.186 C202.733,313.988 206.927,315.234 211.127,316.309 C215.333,317.377 219.546,318.293 223.681,318.3 C225.739,318.3 227.787,318.065 229.771,317.458 C231.256,317.004 232.702,316.337 234.047,315.425 C236.068,314.058 237.833,312.147 239.253,309.727 C240.678,307.304 241.781,304.376 242.588,300.855 L242.589,300.851 C243.052,298.822 243.276,296.822 243.276,294.869 C243.282,289.159 241.341,283.914 238.174,279.436 C233.411,272.707 225.988,267.561 217.626,264.011 C209.253,260.471 199.901,258.536 191.072,258.531 C178.41,258.531 167.435,261.863 159.054,267.213 C154.863,269.89 151.32,273.073 148.55,276.612 C145.781,280.149 143.784,284.047 142.726,288.13 L145.752,288.915" fill="#C04841"/>
    <path d="M101.486,336.126 L93.682,360.868 L71.846,352.688 L80.729,325.657 L101.486,336.126" fill="#F5C2A6"/>
    <path d="M101.486,336.126 L98.106,335.06 L91.425,356.237 L76.276,350.562 L82.81,330.677 L99.89,339.291 L101.486,336.126 L98.106,335.06 L101.486,336.126 L103.083,332.96 L82.325,322.492 C81.409,322.029 80.318,321.99 79.371,322.382 C78.423,322.775 77.681,323.575 77.361,324.55 L68.478,351.581 C67.883,353.39 68.819,355.34 70.602,356.008 L92.438,364.187 C93.35,364.529 94.359,364.481 95.234,364.055 C96.11,363.628 96.769,362.862 97.062,361.934 L104.867,337.192 C105.388,335.539 104.63,333.741 103.083,332.96 L101.486,336.126" fill="#F5C2A6"/>
    <path d="M131.775,303.954 C131.775,303.954 136.814,301.79 139.979,306.798 C143.213,311.837 135.729,318.673 129.088,318.329 C122.439,317.985 120.143,308.868 131.775,303.954" fill="#F5C2A6"/>
    <path d="M131.775,303.954 L133.175,307.211 L132.42,305.455 L133.117,307.235 L133.175,307.211 L132.42,305.455 L133.117,307.235 L133.118,307.234 C133.155,307.215 133.736,307.027 134.335,307.033 C134.766,307.035 135.179,307.108 135.579,307.308 C135.978,307.515 136.434,307.839 136.982,308.691 L136.996,308.713 C137.171,309 137.203,309.155 137.211,309.409 C137.214,309.708 137.102,310.203 136.73,310.82 C136.189,311.742 135.074,312.828 133.729,313.587 C132.388,314.36 130.849,314.803 129.573,314.795 C129.468,314.795 129.36,314.792 129.249,314.788 L129.271,314.789 C128.413,314.738 127.913,314.453 127.598,314.146 C127.291,313.828 127.129,313.483 127.12,312.949 C127.124,312.409 127.318,311.598 128.187,310.551 C129.052,309.515 130.616,308.29 133.154,307.22 L133.175,307.211 L131.775,303.954 L130.396,300.688 C127.056,302.101 124.52,303.895 122.754,305.997 C120.993,308.088 120.027,310.533 120.03,312.949 C120.021,315.308 120.971,317.567 122.598,319.173 C124.218,320.79 126.474,321.749 128.904,321.869 L128.927,321.87 C129.139,321.88 129.354,321.885 129.573,321.885 C131.425,321.883 133.21,321.5 134.864,320.871 C137.345,319.918 139.555,318.425 141.276,316.527 C142.134,315.574 142.869,314.512 143.412,313.326 C143.953,312.142 144.3,310.817 144.301,309.409 C144.309,307.877 143.858,306.264 142.961,304.882 L142.975,304.904 C141.826,303.069 140.314,301.738 138.744,300.963 C137.174,300.18 135.614,299.942 134.335,299.944 C132.113,299.956 130.647,300.591 130.376,300.697 L130.396,300.688 L131.775,303.954" fill="#F5C2A6"/>
    <path d="M107.502,275.04 C107.502,275.04 116.58,270.72 124.393,277.149 C132.213,283.548 135.635,298.485 135.635,298.485 L107.502,275.04" fill="#F5C2A6"/>
    <path d="M107.502,275.04 L109.025,278.241 L108.475,277.084 L109.006,278.25 L109.025,278.241 L108.475,277.084 L109.006,278.25 C109.068,278.21 111.523,277.15 114.505,277.164 C115.691,277.165 116.957,277.32 118.237,277.73 C119.519,278.144 120.823,278.804 122.139,279.886 L122.148,279.893 C123.68,281.14 125.156,282.971 126.432,285.045 C128.355,288.152 129.83,291.768 130.786,294.569 C131.265,295.97 131.619,297.169 131.85,298.007 C131.966,298.426 132.05,298.754 132.105,298.972 C132.133,299.081 132.152,299.163 132.165,299.214 L132.178,299.269 L132.18,299.279 L133.043,299.079 L132.179,299.277 L132.18,299.279 L133.043,299.079 L132.179,299.277 L135.635,298.485 L137.904,295.762 L109.771,272.316 L107.502,275.04 L109.025,278.241 L107.502,275.04 L105.232,277.763 L133.365,301.208 C134.533,302.182 136.194,302.301 137.49,301.506 C138.785,300.71 139.43,299.175 139.09,297.693 C139.061,297.575 138.172,293.691 136.233,288.888 C135.26,286.485 134.025,283.849 132.464,281.32 C130.9,278.793 129.015,276.357 126.637,274.406 L126.646,274.413 C124.629,272.75 122.484,271.645 120.403,270.98 C118.321,270.312 116.31,270.074 114.505,270.075 C109.649,270.092 106.26,271.719 105.978,271.839 C104.887,272.358 104.136,273.397 103.985,274.597 C103.834,275.796 104.304,276.989 105.232,277.763 L107.502,275.04" fill="#F5C2A6"/>
    <path d="M113.166,333.454 C122.197,323.735 114.088,319.673 114.088,319.673 C114.088,319.673 117.9,317.899 121.135,314.517 C124.354,311.126 119.9,310.142 123.182,308.977 C126.447,307.774 133.924,305.384 132.166,299.368 C130.947,295.36 117.166,275.267 103.986,275.626 C90.791,276.024 76.814,299.704 76.768,304.696 C76.627,324.048 87.666,339.673 87.666,339.673 C87.666,339.673 105.791,341.407 113.166,333.454" fill="#F5C2A6"/>
    <path d="M113.166,333.454 L115.763,335.867 C117.565,333.926 118.851,332.092 119.709,330.303 C120.565,328.519 120.981,326.761 120.978,325.123 C120.981,323.653 120.642,322.31 120.136,321.207 C119.373,319.544 118.294,318.419 117.425,317.686 C116.548,316.953 115.853,316.594 115.675,316.503 L114.088,319.673 L115.583,322.887 C115.692,322.836 116.776,322.327 118.305,321.351 C119.834,320.374 121.812,318.935 123.697,316.966 L123.706,316.956 C124.391,316.234 124.944,315.474 125.335,314.631 C125.728,313.795 125.926,312.867 125.921,312.041 C125.92,310.948 125.616,310.112 125.465,309.696 C125.426,309.591 125.396,309.511 125.377,309.46 L125.355,309.4 L124.066,309.829 L125.393,309.547 C125.371,309.441 125.355,309.4 125.355,309.4 L124.066,309.829 L125.393,309.547 L122.969,310.062 L125.445,310.062 C125.445,309.824 125.416,309.653 125.393,309.547 L122.969,310.062 L125.445,310.062 L122.588,310.062 L125.187,311.244 C125.373,310.843 125.449,310.384 125.445,310.062 L122.588,310.062 L125.187,311.244 L122.673,310.1 L124.706,311.974 C124.868,311.799 125.051,311.545 125.187,311.244 L122.673,310.1 L124.706,311.974 L123.259,310.64 L124.221,312.372 C124.277,312.339 124.459,312.238 124.706,311.974 L123.259,310.64 L124.221,312.372 L123.976,311.929 L124.198,312.384 L124.221,312.372 L123.976,311.929 L124.198,312.384 C124.198,312.384 124.253,312.358 124.364,312.319 L124.407,312.304 C125.095,312.049 126.105,311.698 127.221,311.235 C128.901,310.529 130.854,309.599 132.615,308.067 C133.49,307.298 134.323,306.356 134.954,305.18 C135.585,304.011 135.98,302.595 135.975,301.112 C135.975,300.205 135.835,299.283 135.569,298.374 L135.557,298.336 C135.407,297.847 135.227,297.417 135.012,296.952 C134.61,296.09 134.079,295.13 133.413,294.045 C131.086,290.274 127.123,285.024 122.157,280.518 C119.671,278.269 116.934,276.209 113.963,274.663 C110.997,273.124 107.76,272.08 104.336,272.076 C104.2,272.076 104.039,272.077 103.853,272.083 L103.879,272.082 C101.707,272.149 99.617,272.688 97.65,273.519 C94.206,274.983 91.09,277.32 88.252,280.02 C84.005,284.08 80.39,288.997 77.75,293.411 C76.431,295.622 75.361,297.701 74.585,299.536 C74.197,300.456 73.881,301.314 73.645,302.135 C73.413,302.965 73.24,303.729 73.223,304.663 L73.223,304.669 C73.222,304.8 73.221,304.931 73.221,305.062 C73.228,315.33 76.115,324.419 78.966,330.977 C81.825,337.534 84.672,341.575 84.771,341.718 C85.37,342.566 86.296,343.103 87.33,343.202 C87.414,343.209 89.19,343.376 91.872,343.376 C94.951,343.373 99.214,343.163 103.561,342.175 C105.735,341.678 107.935,340.985 110.026,339.981 C112.113,338.976 114.104,337.653 115.765,335.865 L115.763,335.867 L113.166,333.454 L110.567,331.043 C109.66,332.023 108.432,332.881 106.953,333.591 C104.741,334.661 101.991,335.367 99.285,335.768 C96.579,336.173 93.922,336.288 91.872,336.287 C90.679,336.287 89.69,336.249 89.01,336.212 C88.67,336.194 88.408,336.176 88.235,336.163 L88.046,336.147 L88.005,336.144 L87.999,336.144 L87.87,337.53 L88.002,336.144 L87.999,336.144 L87.87,337.53 L88.002,336.144 L87.666,339.673 L90.561,337.627 L88.964,338.756 L90.564,337.631 L90.561,337.627 L88.964,338.756 L90.564,337.631 C90.564,337.631 90.527,337.579 90.452,337.468 C89.891,336.638 87.322,332.69 84.924,326.866 C82.521,321.04 80.306,313.354 80.311,305.062 C80.311,304.95 80.311,304.836 80.312,304.723 L80.312,304.729 L79.74,304.724 L80.312,304.752 L80.312,304.729 L79.74,304.724 L80.312,304.752 C80.312,304.722 80.346,304.493 80.437,304.172 C80.604,303.561 80.955,302.614 81.461,301.511 C82.347,299.572 83.703,297.126 85.375,294.603 C87.879,290.814 91.12,286.833 94.51,283.909 C96.202,282.445 97.927,281.248 99.563,280.439 C101.203,279.625 102.731,279.208 104.093,279.169 L104.12,279.168 C104.167,279.166 104.239,279.165 104.336,279.165 C105.522,279.165 106.78,279.39 108.102,279.836 C110.412,280.612 112.893,282.085 115.268,283.967 C118.837,286.781 122.157,290.481 124.613,293.744 C125.842,295.373 126.86,296.896 127.591,298.115 C127.955,298.724 128.248,299.257 128.453,299.669 C128.657,300.075 128.774,300.386 128.774,300.399 L132.166,299.368 L128.763,300.362 C128.858,300.689 128.885,300.928 128.885,301.112 C128.884,301.312 128.856,301.453 128.805,301.603 C128.717,301.858 128.524,302.18 128.12,302.572 C127.526,303.157 126.479,303.803 125.332,304.325 C124.181,304.857 122.971,305.278 121.956,305.651 L123.182,308.977 L121.999,305.635 C121.631,305.766 121.278,305.911 120.914,306.101 C120.378,306.387 119.766,306.781 119.212,307.504 C118.941,307.862 118.705,308.3 118.56,308.756 C118.411,309.212 118.354,309.671 118.356,310.062 C118.36,310.744 118.497,311.21 118.592,311.526 C118.747,311.998 118.835,312.194 118.851,312.258 L118.856,312.274 L119.739,312.041 L118.831,312.041 C118.831,312.167 118.853,312.264 118.856,312.274 L119.739,312.041 L118.831,312.041 L119.738,312.041 L118.901,311.654 C118.887,311.67 118.826,311.871 118.831,312.041 L119.738,312.041 L118.901,311.654 L118.906,311.656 L118.901,311.654 L118.906,311.656 L118.901,311.654 C118.893,311.669 118.809,311.818 118.564,312.076 L118.573,312.066 C117.224,313.48 115.678,314.62 114.492,315.375 C113.899,315.753 113.397,316.037 113.057,316.22 C112.887,316.311 112.757,316.377 112.677,316.417 L112.595,316.457 L112.593,316.458 C111.363,317.03 110.563,318.265 110.543,319.622 C110.524,320.978 111.288,322.235 112.501,322.842 L113.445,320.957 L112.445,322.814 L112.501,322.842 L113.445,320.957 L112.445,322.814 L112.611,322.506 L112.441,322.811 L112.445,322.814 L112.611,322.506 L112.441,322.811 C112.453,322.812 112.937,323.109 113.287,323.532 C113.466,323.743 113.616,323.976 113.718,324.224 C113.82,324.476 113.887,324.742 113.889,325.123 C113.887,325.585 113.783,326.255 113.314,327.242 C112.845,328.225 111.997,329.505 110.569,331.041 L110.567,331.043 L113.166,333.454" fill="#F5C2A6"/>
    <path d="M93.591,314.113 C93.64,314.179 95.855,317.347 99,320.603 C100.577,322.233 102.383,323.89 104.352,325.208 C105.339,325.866 106.37,326.442 107.465,326.871 C108.559,327.297 109.727,327.582 110.966,327.583 C112.07,327.587 113.23,327.34 114.288,326.79 C115.35,326.244 116.284,325.416 117.05,324.394 L117.178,324.206 C117.251,324.089 117.579,323.549 117.906,322.668 C118.23,321.788 118.558,320.558 118.559,319.076 C118.561,317.852 118.324,316.451 117.675,315.045 C116.393,312.271 114.533,309.722 112.485,307.407 C109.41,303.94 105.893,301.001 103.128,298.897 C100.363,296.797 98.349,295.541 98.298,295.51 C97.052,294.733 95.412,295.115 94.636,296.361 C93.86,297.607 94.241,299.247 95.487,300.023 L95.491,300.025 C95.632,300.113 99.029,302.255 102.866,305.496 C104.784,307.115 106.811,309.008 108.59,311.029 C110.37,313.048 111.895,315.2 112.845,317.269 C113.142,317.919 113.24,318.511 113.242,319.076 C113.244,319.752 113.083,320.383 112.918,320.824 C112.837,321.044 112.757,321.215 112.706,321.315 L112.655,321.412 L112.651,321.417 L113.612,321.977 L112.669,321.389 L112.651,321.417 L113.612,321.977 L112.669,321.389 L114.924,322.798 L112.798,321.201 C112.429,321.688 112.117,321.925 111.849,322.065 C111.579,322.201 111.327,322.263 110.966,322.267 C110.568,322.268 110.033,322.167 109.401,321.918 C108.293,321.492 106.931,320.613 105.6,319.506 C103.595,317.848 101.642,315.708 100.227,314.001 C99.518,313.147 98.939,312.401 98.542,311.874 C98.344,311.611 98.191,311.402 98.089,311.262 L97.976,311.104 L97.95,311.068 L97.944,311.061 C97.101,309.858 95.443,309.567 94.241,310.41 C93.039,311.253 92.748,312.911 93.591,314.113" fill="#EC988F"/>
    <path d="M97.289,318.825 L97.29,318.826 C97.332,318.913 97.968,320.239 98.576,322.116 C99.189,323.99 99.756,326.422 99.75,328.617 C99.752,330.334 99.414,331.845 98.697,332.976 C97.915,334.218 98.288,335.86 99.531,336.642 C100.774,337.424 102.416,337.05 103.198,335.808 C104.624,333.53 105.065,330.987 105.067,328.617 C105.061,325.462 104.299,322.497 103.565,320.265 C102.826,318.037 102.096,316.552 102.058,316.474 C101.409,315.156 99.815,314.615 98.498,315.265 C97.181,315.914 96.64,317.508 97.289,318.825" fill="#EC988F"/>
    <path d="M117.541,321.247 L116.883,318.695 L116.883,321.331 C117.104,321.331 117.33,321.302 117.541,321.247 L116.883,318.695 L116.883,321.331 C117.018,321.331 117.733,321.326 118.762,321.22 C120.307,321.049 122.546,320.697 124.707,319.589 C125.782,319.028 126.862,318.251 127.711,317.11 C128.562,315.978 129.102,314.46 129.091,312.84 C129.09,311.588 128.802,310.294 128.258,308.951 C127.712,307.606 126.909,306.202 125.816,304.682 C123.961,302.103 121.639,299.513 119.19,297.04 C111.851,289.642 103.333,283.311 103.277,283.267 C102.099,282.39 100.433,282.634 99.557,283.811 C98.68,284.99 98.924,286.655 100.102,287.532 L100.139,287.559 C100.548,287.866 104.308,290.699 108.764,294.585 C110.992,296.527 113.394,298.732 115.631,301.004 C117.868,303.273 119.941,305.617 121.499,307.787 C122.404,309.042 122.988,310.103 123.33,310.948 C123.674,311.796 123.774,312.417 123.773,312.84 C123.771,313.209 123.708,313.439 123.615,313.646 C123.533,313.825 123.417,313.994 123.24,314.175 C122.936,314.491 122.418,314.828 121.765,315.1 C120.79,315.514 119.553,315.769 118.577,315.889 C117.599,316.012 116.884,316.013 116.883,316.014 C116.654,316.013 116.423,316.043 116.213,316.098 C114.791,316.465 113.935,317.915 114.302,319.337 C114.669,320.759 116.119,321.614 117.541,321.248" fill="#EC988F"/>
    <path d="M126.169,312.871 C126.326,312.842 128.692,312.551 131.306,311.292 C132.61,310.654 134.005,309.762 135.154,308.396 C135.724,307.714 136.225,306.909 136.576,305.991 C136.929,305.073 137.124,304.046 137.123,302.968 C137.123,301.644 136.836,300.252 136.268,298.81 C135.698,297.365 134.849,295.861 133.687,294.254 L133.69,294.259 C129.176,288.002 123.64,283.032 119.221,279.588 C114.801,276.148 111.492,274.242 111.413,274.196 C110.14,273.463 108.515,273.902 107.783,275.175 C107.051,276.448 107.489,278.074 108.763,278.806 L108.764,278.807 C108.881,278.874 112.029,280.707 116.15,283.936 C120.272,287.163 125.361,291.791 129.376,297.368 L129.38,297.373 C130.337,298.693 130.954,299.827 131.32,300.758 C131.687,301.692 131.806,302.414 131.806,302.968 C131.805,303.422 131.73,303.773 131.61,304.091 C131.4,304.639 131.015,305.135 130.431,305.61 C129.568,306.319 128.281,306.875 127.228,307.189 C126.703,307.349 126.239,307.456 125.92,307.52 C125.76,307.552 125.637,307.573 125.559,307.586 L125.479,307.599 L125.468,307.6 L125.628,308.758 L125.476,307.599 L125.468,307.6 L125.628,308.758 L125.476,307.599 C124.02,307.79 122.995,309.125 123.186,310.581 C123.377,312.038 124.713,313.062 126.169,312.872" fill="#EC988F"/>
    <path d="M81.485,292.189 L81.486,292.186 C81.558,292.065 83.493,288.885 86.547,285.237 C88.073,283.413 89.877,281.473 91.845,279.744 C93.811,278.013 95.942,276.498 98.077,275.49 C102.011,273.622 107.387,272.252 112.628,272.26 C116.04,272.259 119.386,272.829 122.303,274.108 C125.225,275.394 127.728,277.346 129.651,280.282 C132.096,284.033 134.151,287.135 135.527,289.704 C136.216,290.987 136.733,292.132 137.065,293.136 C137.398,294.141 137.546,294.993 137.545,295.738 C137.539,296.636 137.356,297.4 136.877,298.294 C136.396,299.181 135.575,300.192 134.273,301.323 C133.165,302.286 133.048,303.965 134.011,305.073 C134.975,306.181 136.654,306.299 137.762,305.335 C139.398,303.912 140.67,302.445 141.548,300.835 C142.428,299.231 142.869,297.477 142.863,295.738 C142.862,294.29 142.578,292.869 142.112,291.463 C141.409,289.351 140.305,287.246 138.938,284.951 C137.569,282.658 135.928,280.177 134.104,277.377 C131.601,273.531 128.181,270.87 124.436,269.237 C120.686,267.598 116.62,266.944 112.628,266.943 C106.482,266.951 100.487,268.477 95.803,270.683 C93.018,272.003 90.489,273.845 88.227,275.844 C84.839,278.846 82.047,282.217 80.075,284.854 C78.104,287.492 76.96,289.396 76.925,289.453 C76.17,290.712 76.578,292.345 77.837,293.101 C79.096,293.856 80.729,293.448 81.485,292.189" fill="#EC988F"/>
    <path d="M137.651,304.753 L137.971,303.927 L137.643,304.75 L137.651,304.753 L137.971,303.927 L137.643,304.75 C137.684,304.761 139.058,305.337 140.241,306.294 C140.835,306.767 141.37,307.326 141.716,307.885 C142.064,308.452 142.237,308.975 142.241,309.6 C142.238,310.171 142.091,310.896 141.526,311.898 L141.525,311.901 C141.058,312.727 140.336,313.611 139.439,314.44 C138.097,315.688 136.369,316.809 134.663,317.577 C132.963,318.354 131.267,318.758 130.156,318.748 C129.752,318.748 129.433,318.699 129.222,318.637 C129.063,318.591 128.966,318.54 128.91,318.504 L128.771,318.348 C128.728,318.258 128.651,318.045 128.65,317.607 C128.65,317.384 128.672,317.107 128.726,316.782 C128.967,315.333 127.989,313.963 126.541,313.722 C125.092,313.48 123.722,314.459 123.481,315.908 C123.384,316.489 123.333,317.054 123.333,317.607 C123.333,318.564 123.489,319.497 123.848,320.358 C124.115,321.003 124.5,321.599 124.971,322.096 C125.678,322.846 126.558,323.353 127.446,323.651 C128.338,323.951 129.248,324.063 130.156,324.064 C131.632,324.061 133.124,323.769 134.619,323.289 C136.859,322.563 139.107,321.403 141.127,319.926 C143.14,318.444 144.934,316.655 146.151,314.522 L146.149,314.525 C147.091,312.876 147.562,311.193 147.559,309.6 C147.563,307.797 146.961,306.199 146.153,304.953 C144.93,303.073 143.305,301.86 142.003,301.043 C140.695,300.233 139.676,299.837 139.571,299.795 C138.202,299.265 136.662,299.945 136.132,301.314 C135.602,302.684 136.282,304.224 137.651,304.754" fill="#EC988F"/>
    <path d="M64.768,342.157 L107.439,358.579 C107.439,358.579 95.674,395.657 75.26,409.259 C38.033,434.102 32.854,378.985 64.768,342.157" fill="#519CC4"/>
    <path d="M64.768,342.157 L63.494,345.465 L106.166,361.887 L107.439,358.579 L104.061,357.507 L104.055,357.523 C103.913,357.972 100.939,367.144 95.582,377.734 C92.907,383.027 89.635,388.672 85.868,393.74 C82.105,398.811 77.84,403.286 73.294,406.309 L73.292,406.31 C70.241,408.347 67.48,409.768 65.049,410.665 C62.617,411.563 60.524,411.936 58.77,411.936 C56.836,411.931 55.313,411.505 53.991,410.76 C53.001,410.196 52.112,409.434 51.302,408.433 C50.091,406.936 49.075,404.881 48.376,402.329 C47.676,399.78 47.297,396.748 47.298,393.383 C47.294,386.443 48.909,378.106 52.253,369.579 C55.593,361.047 60.65,352.319 67.446,344.478 L64.768,342.157 L63.494,345.465 L64.768,342.157 L62.089,339.835 C54.729,348.329 49.279,357.735 45.651,366.993 C42.028,376.256 40.213,385.366 40.209,393.383 C40.209,396.841 40.548,400.1 41.256,403.093 C42.318,407.572 44.211,411.508 47.182,414.424 C48.664,415.875 50.416,417.048 52.379,417.836 C54.341,418.626 56.5,419.027 58.77,419.025 C61.525,419.025 64.439,418.447 67.506,417.315 C70.574,416.181 73.803,414.491 77.227,412.207 L77.225,412.208 C82.814,408.477 87.612,403.313 91.753,397.706 C97.954,389.29 102.675,379.831 105.891,372.441 C109.102,365.053 110.791,359.735 110.818,359.651 C111.384,357.867 110.46,355.942 108.713,355.27 L66.041,338.849 C64.652,338.314 63.063,338.711 62.089,339.835 L64.768,342.157" fill="#519CC4"/>
    <path d="M279.932,336.126 L287.752,360.868 L309.58,352.688 L300.689,325.657 L279.932,336.126" fill="#F5C2A6"/>
    <path d="M279.932,336.126 L276.552,337.194 L284.372,361.936 C284.665,362.864 285.325,363.629 286.2,364.055 C287.076,364.481 288.084,364.529 288.996,364.187 L310.824,356.008 C312.607,355.339 313.542,353.389 312.947,351.581 L304.057,324.549 C303.736,323.575 302.995,322.775 302.047,322.382 C301.099,321.989 300.009,322.029 299.093,322.492 L278.335,332.96 C276.787,333.741 276.029,335.541 276.552,337.194 L279.932,336.126 L281.528,339.291 L298.609,330.676 L305.149,350.562 L290.006,356.237 L283.312,335.058 L279.932,336.126 L281.528,339.291 L279.932,336.126" fill="#F5C2A6"/>
    <path d="M249.65,303.954 C249.65,303.954 244.619,301.79 241.447,306.798 C238.213,311.837 245.689,318.673 252.346,318.329 C258.986,317.985 261.275,308.868 249.65,303.954" fill="#F5C2A6"/>
    <path d="M249.65,303.954 L251.052,300.698 C250.78,300.591 249.315,299.956 247.093,299.944 C245.815,299.942 244.255,300.18 242.685,300.963 C241.115,301.738 239.604,303.067 238.452,304.901 L238.464,304.882 C237.568,306.264 237.116,307.877 237.124,309.411 C237.128,311.292 237.737,313.005 238.617,314.472 C239.953,316.676 241.909,318.437 244.18,319.744 C246.454,321.036 249.077,321.877 251.859,321.885 C252.078,321.885 252.294,321.88 252.506,321.87 L252.529,321.869 C254.958,321.749 257.212,320.79 258.83,319.172 C260.455,317.567 261.402,315.309 261.393,312.953 C261.397,310.537 260.431,308.091 258.671,305.999 C256.906,303.896 254.37,302.101 251.03,300.688 L251.052,300.698 L249.65,303.954 L248.271,307.219 C250.808,308.29 252.371,309.515 253.236,310.552 C254.105,311.6 254.3,312.412 254.304,312.953 C254.294,313.487 254.132,313.832 253.827,314.149 C253.514,314.455 253.017,314.738 252.162,314.789 L252.186,314.788 C252.073,314.792 251.965,314.795 251.859,314.795 C251.004,314.797 250.037,314.609 249.086,314.246 C247.66,313.709 246.293,312.765 245.414,311.779 C244.971,311.29 244.651,310.799 244.463,310.383 C244.272,309.965 244.214,309.639 244.214,309.411 C244.222,309.156 244.254,309.001 244.43,308.713 L244.442,308.694 C244.992,307.841 245.449,307.516 245.85,307.308 C246.251,307.108 246.663,307.035 247.093,307.033 C247.458,307.032 247.815,307.095 248.047,307.155 C248.163,307.185 248.247,307.213 248.286,307.227 L248.306,307.233 L248.308,307.235 L248.935,305.616 L248.249,307.21 L248.308,307.235 L248.935,305.616 L248.249,307.21 L248.271,307.219 L249.65,303.954" fill="#F5C2A6"/>
    <path d="M273.924,275.04 C273.924,275.04 264.83,270.72 257.033,277.149 C249.205,283.548 245.049,299.673 245.049,299.673 L273.924,275.04" fill="#F5C2A6"/>
    <path d="M273.924,275.04 L275.445,271.838 C275.164,271.718 271.771,270.092 266.914,270.075 C265.109,270.074 263.098,270.311 261.016,270.98 C258.935,271.646 256.791,272.751 254.777,274.415 L254.79,274.404 C252.391,276.373 250.473,278.876 248.843,281.504 C246.409,285.448 244.641,289.713 243.442,293.031 C242.247,296.347 241.636,298.71 241.616,298.788 C241.231,300.28 241.863,301.862 243.171,302.679 C244.478,303.496 246.177,303.37 247.349,302.37 L276.224,277.737 C277.135,276.959 277.595,275.762 277.438,274.576 C277.281,273.389 276.526,272.352 275.445,271.838 L273.924,275.04 L271.623,272.343 L242.748,296.976 L245.049,299.673 L248.481,300.558 L248.482,300.555 C248.517,300.416 249.552,296.495 251.467,291.961 C252.422,289.696 253.597,287.279 254.937,285.129 C256.272,282.977 257.785,281.105 259.277,279.894 L259.289,279.884 C260.602,278.803 261.902,278.144 263.183,277.73 C264.461,277.32 265.727,277.165 266.914,277.164 C268.506,277.163 269.948,277.451 270.958,277.74 C271.463,277.883 271.859,278.024 272.111,278.123 C272.237,278.171 272.328,278.209 272.378,278.231 L272.422,278.25 L272.945,277.1 L272.402,278.242 L272.422,278.25 L272.945,277.1 L272.402,278.242 L273.924,275.04 L271.623,272.343 L273.924,275.04" fill="#F5C2A6"/>
    <path d="M268.268,333.454 C259.229,323.735 267.33,319.673 267.33,319.673 C267.33,319.673 263.525,317.899 260.291,314.517 C257.072,311.126 261.525,310.142 258.244,308.977 C254.979,307.774 247.502,305.384 249.268,299.368 C250.479,295.36 264.307,275.267 277.439,275.626 C290.635,276.024 304.611,299.704 304.65,304.696 C304.791,324.048 293.768,339.673 293.768,339.673 C293.768,339.673 275.635,341.407 268.268,333.454" fill="#F5C2A6"/>
    <path d="M268.268,333.454 L270.863,331.04 C269.432,329.502 268.582,328.22 268.113,327.236 C267.642,326.248 267.539,325.578 267.537,325.116 C267.539,324.698 267.618,324.417 267.739,324.144 C267.917,323.745 268.248,323.369 268.554,323.115 C268.703,322.989 268.839,322.897 268.915,322.849 L268.979,322.811 L268.253,321.513 L268.919,322.842 L268.979,322.811 L268.253,321.513 L268.919,322.842 C270.131,322.234 270.894,320.978 270.875,319.622 C270.855,318.266 270.057,317.032 268.828,316.459 L268.826,316.458 C268.718,316.407 267.857,315.983 266.706,315.23 C265.555,314.478 264.119,313.393 262.853,312.066 L262.862,312.076 C262.722,311.929 262.634,311.816 262.583,311.745 L262.525,311.653 L262.498,311.667 L262.525,311.655 L262.525,311.653 L262.498,311.667 L262.525,311.655 L261.676,312.041 L262.594,312.041 C262.599,311.873 262.541,311.676 262.525,311.655 L261.676,312.041 L262.594,312.041 L261.632,312.041 L262.571,312.267 C262.577,312.242 262.595,312.153 262.594,312.041 L261.632,312.041 L262.571,312.267 L262.54,312.259 L262.571,312.269 L262.571,312.267 L262.54,312.259 L262.571,312.269 C262.578,312.237 262.632,312.1 262.746,311.787 C262.802,311.628 262.872,311.423 262.939,311.144 C263.005,310.866 263.069,310.507 263.07,310.062 C263.074,309.543 262.963,308.894 262.692,308.309 C262.493,307.87 262.22,307.479 261.934,307.17 C261.501,306.704 261.059,306.405 260.649,306.175 C260.236,305.947 259.841,305.783 259.427,305.636 L258.244,308.977 L259.47,305.651 C258.693,305.366 257.815,305.058 256.923,304.687 C255.59,304.143 254.261,303.43 253.492,302.742 C253.103,302.401 252.859,302.087 252.729,301.842 C252.6,301.589 252.551,301.415 252.546,301.118 C252.547,300.933 252.573,300.694 252.668,300.369 L252.661,300.393 C252.66,300.389 252.727,300.2 252.849,299.94 C253.079,299.443 253.498,298.668 254.058,297.761 C256.023,294.558 259.734,289.665 264.047,285.774 C266.2,283.823 268.503,282.12 270.751,280.953 C273.004,279.779 275.164,279.161 277.09,279.165 C277.187,279.165 277.258,279.166 277.306,279.168 L277.332,279.169 C278.459,279.202 279.692,279.49 281.015,280.05 C283.329,281.02 285.87,282.843 288.279,285.149 C291.903,288.601 295.237,293.101 297.586,297.045 C298.762,299.014 299.696,300.849 300.305,302.293 C300.609,303.013 300.83,303.635 300.96,304.089 C301.025,304.315 301.066,304.498 301.087,304.616 L301.105,304.737 L301.106,304.749 L301.61,304.719 L301.106,304.724 L301.106,304.749 L301.61,304.719 L301.106,304.724 L301.106,304.721 C301.106,304.831 301.107,304.945 301.107,305.063 C301.113,313.978 298.553,322.193 295.959,328.146 C294.665,331.122 293.369,333.529 292.408,335.174 C291.927,335.996 291.53,336.627 291.26,337.045 C291.125,337.253 291.021,337.408 290.955,337.507 L290.883,337.611 L290.869,337.631 L290.868,337.633 L292.469,338.756 L290.871,337.629 L290.868,337.633 L292.469,338.756 L290.871,337.629 L293.768,339.673 L293.432,336.144 L293.561,337.503 L293.435,336.144 L293.432,336.144 L293.561,337.503 L293.435,336.144 C293.417,336.145 291.873,336.287 289.56,336.287 C286.826,336.29 283.009,336.08 279.446,335.263 C277.665,334.858 275.952,334.302 274.478,333.592 C273,332.881 271.773,332.024 270.868,331.044 L270.863,331.04 L268.268,333.454 L265.667,335.863 C267.327,337.652 269.318,338.976 271.404,339.98 C274.541,341.484 277.92,342.301 281.096,342.779 C284.273,343.253 287.251,343.376 289.56,343.376 C292.243,343.376 294.019,343.209 294.103,343.202 C295.137,343.103 296.066,342.564 296.664,341.716 C296.763,341.573 299.606,337.532 302.46,330.975 C305.307,324.418 308.19,315.329 308.196,305.063 C308.196,304.936 308.196,304.806 308.195,304.671 L308.195,304.668 C308.186,303.952 308.077,303.346 307.93,302.722 C307.648,301.564 307.2,300.354 306.607,299.006 C305.569,296.659 304.077,293.932 302.222,291.087 C299.437,286.826 295.862,282.323 291.745,278.713 C289.682,276.911 287.481,275.327 285.12,274.141 C282.763,272.959 280.222,272.165 277.546,272.082 L277.573,272.083 C277.388,272.077 277.227,272.076 277.09,272.076 C275.012,272.076 272.99,272.469 271.067,273.12 C267.7,274.265 264.608,276.177 261.783,278.404 C257.553,281.751 253.916,285.838 251.166,289.474 C249.792,291.294 248.645,292.998 247.762,294.47 C247.32,295.207 246.944,295.886 246.632,296.512 C246.32,297.145 246.072,297.701 245.874,298.343 L245.867,298.367 C245.597,299.282 245.456,300.209 245.456,301.118 C245.455,302.104 245.625,303.066 245.931,303.94 C246.467,305.479 247.387,306.71 248.382,307.671 C249.885,309.113 251.577,310.041 253.125,310.763 C254.67,311.475 256.112,311.968 257.018,312.304 L257.061,312.319 L257.201,312.373 L257.224,312.383 L257.225,312.383 L258.128,310.6 L256.578,311.807 C256.937,312.254 257.208,312.369 257.225,312.383 L258.128,310.6 L256.578,311.807 L258.814,310.065 L256.127,310.959 C256.232,311.282 256.405,311.587 256.578,311.807 L258.814,310.065 L256.127,310.959 L258.826,310.061 L255.98,310.062 C255.979,310.311 256.018,310.636 256.127,310.959 L258.826,310.061 L255.98,310.062 L258.161,310.062 L256.068,309.406 C256.062,309.437 255.985,309.636 255.98,310.062 L258.161,310.062 L256.068,309.406 L256.493,309.539 L256.07,309.4 L256.068,309.406 L256.493,309.539 L256.07,309.4 C256.07,309.401 256.046,309.468 255.998,309.594 C255.864,309.967 255.507,310.849 255.505,312.041 C255.499,312.867 255.698,313.795 256.091,314.631 C256.481,315.474 257.034,316.234 257.72,316.956 L257.729,316.966 C259.613,318.934 261.588,320.373 263.115,321.35 C264.641,322.325 265.724,322.834 265.832,322.886 L267.33,319.673 L265.742,316.503 C265.506,316.628 264.343,317.216 263.076,318.555 C262.446,319.227 261.792,320.099 261.288,321.205 C260.782,322.307 260.444,323.648 260.447,325.116 C260.445,326.755 260.861,328.515 261.719,330.299 C262.578,332.09 263.866,333.925 265.672,335.868 L265.667,335.863 L268.268,333.454" fill="#F5C2A6"/>
    <path d="M283.473,311.061 L283.471,311.064 C283.389,311.184 281.259,314.183 278.467,317.045 C277.077,318.476 275.517,319.867 274.051,320.833 C273.32,321.317 272.615,321.692 271.997,321.93 C271.377,322.17 270.854,322.268 270.462,322.267 C270.101,322.263 269.849,322.201 269.577,322.065 C269.309,321.925 268.996,321.687 268.627,321.2 L266.502,322.798 L268.757,321.389 L267.398,322.238 L268.773,321.416 L268.757,321.389 L267.398,322.238 L268.773,321.416 L268.58,321.531 L268.774,321.418 L268.773,321.416 L268.58,321.531 L268.774,321.418 C268.769,321.409 268.608,321.128 268.461,320.695 C268.312,320.261 268.18,319.683 268.181,319.066 C268.183,318.503 268.28,317.913 268.575,317.265 L268.571,317.272 C269.541,315.168 271.101,312.981 272.919,310.933 C275.642,307.856 278.924,305.093 281.507,303.13 C282.798,302.148 283.916,301.362 284.704,300.827 C285.098,300.56 285.409,300.354 285.619,300.218 C285.724,300.15 285.804,300.099 285.855,300.066 L285.912,300.03 L285.925,300.022 C287.17,299.245 287.55,297.605 286.773,296.359 C285.996,295.114 284.356,294.734 283.11,295.511 C283.042,295.555 279.492,297.769 275.319,301.269 C273.232,303.021 270.988,305.095 268.939,307.407 C266.891,309.722 265.029,312.27 263.745,315.041 L263.741,315.049 C263.097,316.451 262.862,317.846 262.864,319.066 C262.865,320.551 263.194,321.783 263.518,322.665 C263.846,323.548 264.175,324.089 264.247,324.206 L264.377,324.395 C265.143,325.417 266.078,326.244 267.139,326.79 C268.198,327.34 269.358,327.587 270.462,327.583 C271.701,327.582 272.869,327.297 273.963,326.871 C275.876,326.117 277.607,324.929 279.217,323.601 C281.622,321.605 283.736,319.262 285.285,317.398 C286.83,315.535 287.798,314.154 287.828,314.112 C288.67,312.909 288.378,311.251 287.175,310.409 C285.973,309.567 284.315,309.859 283.473,311.062" fill="#EC988F"/>
    <path d="M279.359,316.475 C279.321,316.553 278.593,318.037 277.856,320.263 C277.123,322.494 276.363,325.457 276.357,328.61 C276.359,330.982 276.8,333.528 278.228,335.807 C279.01,337.05 280.651,337.423 281.894,336.642 C283.137,335.86 283.511,334.219 282.729,332.976 C282.01,331.843 281.673,330.331 281.674,328.61 C281.668,326.345 282.272,323.828 282.904,321.933 C283.218,320.983 283.533,320.186 283.766,319.636 C283.882,319.361 283.978,319.148 284.042,319.009 L284.113,318.857 L284.129,318.825 L284.129,318.823 C284.778,317.506 284.235,315.912 282.918,315.264 C281.601,314.616 280.007,315.158 279.359,316.476" fill="#EC988F"/>
    <path d="M265.222,316.089 C265.031,316.042 264.815,316.013 264.59,316.014 C264.588,316.014 264.044,316.013 263.252,315.931 C262.067,315.818 260.323,315.472 259.183,314.866 C258.608,314.569 258.209,314.234 257.991,313.936 C257.776,313.626 257.662,313.375 257.651,312.822 C257.65,312.399 257.75,311.78 258.092,310.935 C258.432,310.092 259.012,309.036 259.911,307.787 L259.909,307.789 C261.522,305.548 263.682,303.123 266.004,300.785 C269.489,297.272 273.336,293.941 276.301,291.503 C277.783,290.283 279.045,289.286 279.934,288.595 C280.378,288.25 280.729,287.982 280.967,287.801 C281.086,287.711 281.177,287.642 281.237,287.597 L281.324,287.532 C282.501,286.655 282.745,284.989 281.869,283.811 C280.992,282.634 279.326,282.39 278.149,283.267 C278.114,283.292 274.312,286.123 269.609,290.191 C267.257,292.226 264.68,294.57 262.23,297.04 C259.779,299.512 257.454,302.102 255.595,304.681 L255.593,304.684 C254.505,306.199 253.706,307.6 253.162,308.941 C252.621,310.281 252.334,311.573 252.333,312.822 C252.331,313.903 252.559,314.944 252.977,315.85 C253.341,316.644 253.841,317.329 254.397,317.894 C255.378,318.885 256.511,319.531 257.618,319.998 C259.284,320.693 260.934,320.999 262.223,321.165 C263.51,321.325 264.433,321.331 264.59,321.331 L264.59,318.696 L263.969,321.256 C264.16,321.303 264.372,321.331 264.59,321.331 L264.59,318.696 L263.969,321.256 C265.396,321.602 266.833,320.726 267.179,319.299 C267.525,317.872 266.649,316.435 265.222,316.089" fill="#EC988F"/>
    <path d="M255.95,307.599 L255.751,309.115 L255.958,307.6 L255.95,307.599 L255.751,309.115 L255.958,307.6 L255.88,307.588 C255.479,307.532 253.58,307.153 252.059,306.31 C251.294,305.895 250.647,305.383 250.248,304.852 C250.045,304.584 249.897,304.314 249.792,304.016 C249.688,303.717 249.624,303.386 249.623,302.967 C249.623,302.412 249.741,301.689 250.108,300.756 C250.474,299.825 251.09,298.692 252.046,297.372 L252.049,297.369 C256.132,291.703 261.321,287.017 265.478,283.784 C267.555,282.167 269.374,280.91 270.662,280.064 C271.307,279.641 271.819,279.321 272.165,279.109 C272.338,279.003 272.469,278.924 272.555,278.873 L272.649,278.818 L272.669,278.807 L272.671,278.806 C273.944,278.073 274.382,276.448 273.65,275.175 C272.918,273.902 271.293,273.464 270.02,274.196 C269.942,274.242 266.632,276.148 262.212,279.588 C257.792,283.032 252.255,288.001 247.737,294.258 L247.739,294.255 C246.577,295.861 245.729,297.365 245.16,298.809 C244.592,300.251 244.305,301.643 244.306,302.967 C244.304,304.045 244.5,305.071 244.852,305.989 C245.469,307.603 246.531,308.838 247.653,309.743 C249.347,311.103 251.201,311.827 252.648,312.275 C254.097,312.716 255.156,312.857 255.257,312.871 C256.713,313.062 258.048,312.037 258.239,310.581 C258.431,309.126 257.406,307.79 255.95,307.6" fill="#EC988F"/>
    <path d="M305.936,291.216 C305.894,291.151 303.522,287.357 299.845,282.918 C298.005,280.697 295.839,278.314 293.446,276.146 C291.051,273.981 288.436,272.021 285.615,270.683 L285.619,270.685 C280.953,268.477 274.967,266.951 268.828,266.943 C264.839,266.944 260.778,267.598 257.032,269.237 C253.29,270.871 249.876,273.533 247.382,277.38 L247.39,277.369 C244.933,281.108 242.807,284.273 241.228,287.194 C240.439,288.656 239.785,290.061 239.315,291.472 C238.846,292.88 238.561,294.303 238.56,295.753 C238.554,297.489 238.995,299.24 239.872,300.841 C240.748,302.449 242.016,303.912 243.646,305.333 C244.753,306.298 246.432,306.182 247.397,305.075 C248.361,303.968 248.246,302.289 247.139,301.325 C245.842,300.196 245.024,299.187 244.544,298.302 C244.067,297.41 243.884,296.647 243.878,295.753 C243.877,295.009 244.025,294.157 244.36,293.152 C244.858,291.646 245.785,289.823 247.07,287.69 C248.352,285.555 249.98,283.107 251.833,280.289 L251.84,280.278 C253.754,277.344 256.25,275.393 259.167,274.107 C262.078,272.829 265.421,272.259 268.828,272.26 C274.061,272.252 279.426,273.622 283.338,275.488 L283.342,275.49 C285.478,276.496 287.742,278.15 289.877,280.088 C293.085,282.991 296.008,286.508 298.097,289.28 C299.143,290.667 299.983,291.868 300.558,292.716 C300.846,293.14 301.067,293.476 301.214,293.703 C301.288,293.816 301.343,293.902 301.379,293.958 L301.418,294.02 L301.427,294.036 C302.206,295.28 303.846,295.658 305.091,294.88 C306.336,294.102 306.714,292.461 305.936,291.216" fill="#EC988F"/>
    <path d="M241.855,299.794 C241.714,299.855 239.952,300.527 238.04,302.001 C237.086,302.743 236.083,303.695 235.271,304.95 C234.462,306.196 233.86,307.794 233.864,309.597 C233.861,311.192 234.333,312.877 235.278,314.528 L235.274,314.52 C236.081,315.945 237.153,317.21 238.369,318.34 C240.195,320.03 242.352,321.417 244.569,322.422 C246.793,323.419 249.058,324.054 251.267,324.064 C252.075,324.064 252.883,323.975 253.68,323.745 C254.277,323.572 254.869,323.317 255.422,322.956 C256.253,322.42 256.979,321.621 257.434,320.677 C257.894,319.732 258.093,318.682 258.092,317.606 C258.092,317.054 258.041,316.489 257.945,315.91 C257.705,314.461 256.336,313.481 254.887,313.722 C253.439,313.962 252.459,315.331 252.699,316.78 C252.754,317.107 252.775,317.383 252.775,317.606 C252.775,317.995 252.713,318.209 252.67,318.312 L252.59,318.443 C252.555,318.478 252.489,318.54 252.277,318.614 C252.068,318.685 251.722,318.748 251.267,318.748 C250.529,318.75 249.522,318.581 248.436,318.228 C246.803,317.704 244.99,316.778 243.439,315.638 C241.882,314.503 240.596,313.144 239.902,311.903 L239.898,311.895 C239.331,310.893 239.185,310.169 239.182,309.597 C239.186,308.954 239.37,308.415 239.741,307.83 C240.287,306.962 241.315,306.116 242.225,305.561 C242.676,305.282 243.09,305.068 243.377,304.931 C243.521,304.863 243.633,304.813 243.703,304.783 L243.774,304.753 L243.76,304.717 L243.774,304.754 L243.774,304.753 L243.76,304.717 L243.774,304.754 C245.143,304.224 245.824,302.685 245.294,301.315 C244.764,299.946 243.225,299.265 241.855,299.795" fill="#EC988F"/>
    <path d="M316.666,342.157 L273.986,358.579 C273.986,358.579 285.752,395.657 306.158,409.259 C343.4,434.102 337.814,377.845 316.666,342.157" fill="#519CC4"/>
    <path d="M316.666,342.157 L315.393,338.849 L272.713,355.27 C270.966,355.942 270.042,357.867 270.607,359.651 C270.645,359.764 273.63,369.176 279.25,380.405 C282.063,386.021 285.534,392.094 289.669,397.705 C293.809,403.313 298.605,408.477 304.192,412.208 C307.552,414.448 310.644,416.109 313.535,417.231 C316.425,418.351 319.127,418.939 321.687,418.941 C324.286,418.949 326.746,418.298 328.805,417.027 C330.351,416.081 331.652,414.815 332.696,413.363 C334.265,411.178 335.287,408.593 335.946,405.745 C336.601,402.894 336.891,399.759 336.892,396.396 C336.886,388.22 335.174,378.658 332.193,368.887 C329.207,359.123 324.941,349.172 319.716,340.35 C318.832,338.858 317.011,338.226 315.393,338.849 L316.666,342.157 L313.616,343.964 C318.514,352.225 322.589,361.715 325.413,370.959 C328.242,380.198 329.809,389.214 329.803,396.396 C329.803,399.016 329.596,401.387 329.196,403.411 C328.896,404.929 328.489,406.251 328.002,407.342 C327.268,408.987 326.39,410.076 325.429,410.765 C324.943,411.112 324.425,411.371 323.82,411.557 C323.215,411.742 322.518,411.852 321.687,411.852 C320.24,411.854 318.374,411.505 316.099,410.622 C313.825,409.741 311.156,408.332 308.125,406.31 C303.508,403.239 299.182,398.668 295.376,393.498 C289.657,385.748 285.109,376.695 282.036,369.615 C280.497,366.075 279.323,363.026 278.536,360.874 C278.143,359.797 277.847,358.945 277.651,358.368 C277.553,358.079 277.48,357.858 277.432,357.712 L277.379,357.551 L277.367,357.514 L277.365,357.507 L273.986,358.579 L275.259,361.887 L317.939,345.465 L316.666,342.157 L313.616,343.964 L316.666,342.157" fill="#519CC4"/>
    <path d="M278.525,239.423 C278.525,239.423 298.596,237.337 308.127,252.11 C318.182,267.813 300.104,271.165 296.064,261.47 C290.916,249.376 292.002,243.923 278.525,239.423" fill="#5CA7D0"/>
    <path d="M278.525,239.423 L278.893,242.948 L278.742,241.5 L278.885,242.949 L278.893,242.948 L278.742,241.5 L278.885,242.949 C278.901,242.947 279.739,242.866 281.118,242.866 C283.725,242.861 288.263,243.168 292.833,244.747 C295.119,245.534 297.412,246.63 299.516,248.135 C301.622,249.643 303.545,251.55 305.148,254.032 L305.142,254.021 C306.087,255.497 306.708,256.787 307.082,257.863 C307.458,258.941 307.586,259.799 307.585,260.443 C307.584,261.07 307.472,261.495 307.329,261.818 C307.11,262.293 306.812,262.609 306.313,262.896 C305.819,263.174 305.112,263.365 304.315,263.363 C303.348,263.366 302.283,263.082 301.403,262.535 C300.517,261.982 299.804,261.216 299.337,260.106 L299.326,260.081 C298.094,257.186 297.226,254.669 296.377,252.34 C295.739,250.595 295.112,248.949 294.318,247.352 C293.14,244.964 291.503,242.677 289.103,240.793 C286.707,238.899 283.675,237.406 279.648,236.06 L278.525,239.423 L278.893,242.948 L278.525,239.423 L277.403,242.785 C280.559,243.837 282.69,244.897 284.172,245.954 C285.288,246.751 286.061,247.537 286.735,248.45 C287.739,249.81 288.526,251.558 289.416,253.954 C290.307,256.338 291.294,259.311 292.803,262.858 L292.792,262.833 C293.841,265.361 295.632,267.313 297.682,268.57 C299.738,269.833 302.04,270.45 304.315,270.453 C306.803,270.45 309.335,269.706 311.365,267.977 C312.372,267.116 313.227,266.004 313.802,264.711 C314.381,263.419 314.677,261.962 314.675,260.443 C314.675,258.872 314.37,257.232 313.778,255.532 C313.184,253.83 312.304,252.061 311.112,250.199 L311.106,250.188 C308.992,246.91 306.398,244.338 303.639,242.368 C299.495,239.408 295.008,237.78 291.008,236.873 C287.003,235.967 283.465,235.777 281.118,235.776 C279.35,235.776 278.258,235.887 278.157,235.897 C276.497,236.07 275.183,237.377 275.002,239.037 C274.82,240.696 275.819,242.256 277.403,242.785 L278.525,239.423" fill="#5CA7D0"/>
    <path d="M325.705,281.024 C325.705,281.024 336.104,281.532 344.854,290.579 C357.799,303.954 338.111,312.063 334.01,302.407 C328.924,290.282 334.549,291.962 325.705,281.024" fill="#5CA7D0"/>
    <path d="M325.705,281.024 L325.532,284.565 L325.594,283.308 L325.516,284.564 L325.532,284.565 L325.594,283.308 L325.516,284.564 C325.581,284.566 327.929,284.726 331.166,285.872 C334.41,287.02 338.522,289.132 342.305,293.043 C343.659,294.441 344.513,295.686 345.009,296.714 C345.506,297.746 345.656,298.545 345.657,299.168 C345.654,299.756 345.529,300.212 345.308,300.649 C344.979,301.296 344.368,301.915 343.528,302.374 C342.697,302.833 341.664,303.097 340.726,303.093 C339.883,303.093 339.141,302.894 338.589,302.567 C338.035,302.23 337.619,301.811 337.272,301.021 L337.279,301.036 C336.085,298.187 335.572,296.29 335.293,294.828 C335.084,293.726 335.006,292.844 334.902,291.839 C334.823,291.089 334.729,290.263 334.522,289.34 C334.217,287.951 333.644,286.428 332.688,284.757 C331.731,283.076 330.4,281.194 328.462,278.795 L325.705,281.024 L325.532,284.565 L325.705,281.024 L322.948,283.253 C325.075,285.879 326.239,287.652 326.856,288.877 C327.322,289.804 327.502,290.399 327.638,291.051 C327.738,291.54 327.802,292.089 327.875,292.809 C327.985,293.883 328.12,295.315 328.527,297.109 C328.932,298.909 329.602,301.064 330.741,303.778 L330.747,303.792 C331.648,305.941 333.202,307.638 335,308.681 C336.8,309.735 338.793,310.182 340.726,310.182 C343.615,310.17 346.447,309.222 348.746,307.381 C349.89,306.456 350.893,305.29 351.612,303.893 C352.333,302.499 352.75,300.874 352.746,299.168 C352.748,297.352 352.286,295.471 351.39,293.625 C350.493,291.775 349.173,289.945 347.401,288.113 C342.556,283.104 337.24,280.448 333.141,279.053 C329.034,277.657 326.121,277.497 325.878,277.483 C324.479,277.415 323.178,278.17 322.544,279.419 C321.91,280.668 322.068,282.164 322.948,283.253 L325.705,281.024" fill="#5CA7D0"/>
    <path d="M106.76,239.423 C106.76,239.423 86.689,237.337 77.158,252.11 C67.096,267.813 85.174,271.165 89.275,261.47 C94.361,249.376 93.283,243.923 106.76,239.423" fill="#5CA7D0"/>
    <path d="M106.76,239.423 L107.128,235.897 C107.027,235.887 105.935,235.776 104.167,235.776 C101.039,235.781 95.789,236.107 90.146,238.043 C87.326,239.014 84.406,240.394 81.646,242.368 C78.887,244.338 76.293,246.91 74.179,250.188 L74.174,250.197 C72.981,252.06 72.099,253.829 71.505,255.531 C70.912,257.232 70.607,258.872 70.606,260.444 C70.605,261.964 70.901,263.421 71.48,264.713 C72.344,266.66 73.839,268.166 75.529,269.094 C77.225,270.032 79.103,270.451 80.978,270.453 C83.255,270.45 85.56,269.834 87.621,268.575 C89.677,267.321 91.477,265.374 92.54,262.851 L92.543,262.844 C93.868,259.692 94.784,256.994 95.592,254.76 C96.196,253.083 96.741,251.675 97.322,250.509 C98.205,248.753 99.084,247.552 100.582,246.352 C102.083,245.16 104.329,243.97 107.882,242.785 C109.466,242.256 110.465,240.696 110.284,239.037 C110.102,237.377 108.788,236.07 107.128,235.897 L106.76,239.423 L105.637,236.06 C102.055,237.258 99.268,238.567 97.003,240.177 C95.307,241.379 93.928,242.76 92.835,244.257 C91.188,246.512 90.191,248.924 89.24,251.485 C88.29,254.058 87.378,256.838 86.008,260.095 L86.011,260.088 C85.534,261.202 84.811,261.975 83.915,262.531 C83.024,263.081 81.951,263.366 80.978,263.363 C79.9,263.366 79.021,263.023 78.532,262.593 C78.28,262.374 78.098,262.139 77.952,261.818 C77.809,261.495 77.698,261.071 77.696,260.444 C77.696,259.801 77.824,258.943 78.2,257.865 C78.574,256.789 79.196,255.499 80.143,254.023 L80.137,254.032 C81.74,251.55 83.663,249.643 85.769,248.135 C88.922,245.877 92.514,244.54 95.844,243.787 C99.169,243.032 102.212,242.865 104.167,242.866 C104.903,242.866 105.484,242.889 105.869,242.911 C106.062,242.922 106.205,242.933 106.294,242.94 L106.386,242.948 L106.4,242.949 L106.542,241.513 L106.392,242.948 L106.4,242.949 L106.542,241.513 L106.392,242.948 L106.76,239.423 L105.637,236.06 L106.76,239.423" fill="#5CA7D0"/>
    <path d="M59.619,281.024 C59.619,281.024 49.182,281.532 40.432,290.579 C27.479,303.954 47.166,312.063 51.268,302.407 C56.354,290.282 50.729,291.962 59.619,281.024" fill="#5CA7D0"/>
    <path d="M59.619,281.024 L59.447,277.483 C59.204,277.497 56.282,277.657 52.167,279.052 C48.058,280.447 42.731,283.102 37.884,288.114 L37.885,288.113 C36.112,289.945 34.789,291.775 33.892,293.626 C32.995,295.473 32.533,297.355 32.534,299.172 C32.531,300.877 32.948,302.502 33.668,303.895 C34.751,305.995 36.452,307.558 38.349,308.596 C40.254,309.633 42.382,310.179 44.551,310.183 C46.484,310.183 48.477,309.736 50.277,308.682 C52.075,307.638 53.628,305.941 54.53,303.793 L54.536,303.778 C55.886,300.564 56.577,298.124 56.95,296.151 C57.231,294.676 57.333,293.488 57.43,292.582 C57.502,291.897 57.571,291.379 57.68,290.898 C57.848,290.182 58.091,289.467 58.77,288.271 C59.447,287.087 60.567,285.476 62.37,283.26 C63.253,282.173 63.415,280.674 62.782,279.424 C62.15,278.174 60.846,277.415 59.447,277.483 L59.619,281.024 L56.868,278.788 C54.561,281.63 53.104,283.748 52.122,285.661 C51.388,287.088 50.945,288.426 50.701,289.634 C50.515,290.539 50.431,291.343 50.354,292.081 C50.238,293.195 50.141,294.187 49.835,295.547 C49.529,296.903 49.005,298.634 47.999,301.036 L48.005,301.021 C47.658,301.811 47.241,302.23 46.687,302.568 C46.135,302.894 45.394,303.094 44.551,303.094 C43.926,303.094 43.258,302.982 42.637,302.767 C41.701,302.446 40.895,301.894 40.393,301.284 C40.139,300.977 39.952,300.659 39.825,300.32 C39.698,299.978 39.625,299.613 39.624,299.172 C39.625,298.548 39.774,297.749 40.272,296.717 C40.769,295.689 41.623,294.442 42.978,293.045 L42.98,293.043 C46.882,289.008 51.149,286.887 54.447,285.766 C56.092,285.206 57.488,284.902 58.444,284.74 C58.921,284.659 59.289,284.614 59.521,284.589 C59.638,284.577 59.72,284.57 59.766,284.567 L59.808,284.564 L59.731,283.327 L59.791,284.565 L59.808,284.564 L59.731,283.327 L59.791,284.565 L59.619,281.024 L56.868,278.788 L59.619,281.024" fill="#5CA7D0"/>
    <path d="M341.291,60.735 C341.291,60.735 350.08,44.704 364.588,44.735 C379.979,44.767 375.291,57.563 366.588,56.188 C355.791,54.485 349.893,54.071 341.291,60.735" fill="#5CA7D0"/>
    <path d="M341.291,60.735 L344.399,62.439 L343.377,61.878 L344.396,62.445 L344.399,62.439 L343.377,61.878 L344.396,62.445 C344.424,62.384 346.541,58.632 350.164,55.073 C351.971,53.29 354.145,51.562 356.564,50.314 C358.99,49.063 361.631,48.281 364.545,48.279 L364.587,48.279 L364.563,45.549 L364.534,48.279 L364.587,48.279 L364.563,45.549 L364.534,48.279 L364.569,45.017 L364.348,48.272 L364.534,48.279 L364.569,45.017 L364.348,48.272 L364.581,48.28 C366.167,48.283 367.429,48.444 368.383,48.679 C369.823,49.033 370.522,49.537 370.807,49.843 C370.954,50 371.015,50.113 371.053,50.206 C371.089,50.299 371.105,50.38 371.106,50.489 C371.106,50.633 371.07,50.835 370.952,51.08 C370.78,51.445 370.415,51.881 369.891,52.202 C369.365,52.524 368.702,52.744 367.885,52.745 C367.651,52.745 367.398,52.727 367.128,52.685 L367.14,52.686 C363.176,52.064 359.741,51.578 356.387,51.575 C353.46,51.571 350.585,51.97 347.728,53 C344.867,54.026 342.067,55.647 339.119,57.933 L341.291,60.735 L344.399,62.439 L341.291,60.735 L343.463,63.537 C345.989,61.581 348.115,60.394 350.123,59.673 C352.133,58.956 354.07,58.668 356.387,58.664 C359.025,58.661 362.147,59.073 366.035,59.69 L366.048,59.692 C366.664,59.787 367.278,59.834 367.885,59.834 C370.732,59.836 373.283,58.774 375.123,57.102 C376.046,56.264 376.802,55.271 377.34,54.155 C377.877,53.04 378.195,51.793 378.195,50.489 C378.199,49.198 377.871,47.855 377.198,46.654 C376.695,45.751 376.009,44.935 375.187,44.246 C373.951,43.209 372.428,42.454 370.671,41.952 C368.91,41.451 366.902,41.196 364.595,41.19 L364.588,44.735 L364.828,41.198 C364.703,41.19 364.614,41.19 364.566,41.189 L364.525,41.19 L364.545,43.521 L364.545,41.19 L364.525,41.19 L364.545,43.521 L364.545,41.19 C360.265,41.188 356.416,42.381 353.155,44.096 C348.255,46.677 344.592,50.381 342.089,53.425 C339.59,56.475 338.258,58.895 338.183,59.031 C337.375,60.504 337.712,62.341 338.99,63.432 C340.268,64.522 342.134,64.566 343.463,63.537 L341.291,60.735" fill="#5CA7D0"/>
    <path d="M310.721,31.947 C310.721,31.947 311.494,13.704 324.58,7.345 C338.408,0.611 339.822,14.173 331.416,16.728 C320.916,19.954 315.447,22.181 310.721,31.947" fill="#5CA7D0"/>
    <path d="M310.721,31.947 L314.262,32.096 L313.146,32.049 L314.262,32.103 L314.262,32.096 L313.146,32.049 L314.262,32.103 C314.26,32.037 314.495,27.736 316.176,22.949 C317.012,20.554 318.202,18.049 319.828,15.866 C321.459,13.678 323.494,11.816 326.129,10.533 L326.132,10.532 C328.489,9.379 330.234,9.026 331.281,9.033 C331.819,9.033 332.176,9.116 332.402,9.2 C332.739,9.336 332.815,9.436 332.91,9.566 C332.995,9.697 333.079,9.917 333.08,10.262 C333.084,10.724 332.901,11.369 332.467,11.94 C332.031,12.513 331.387,13.027 330.384,13.336 L330.375,13.339 C327.723,14.155 325.334,14.921 323.115,15.797 C319.797,17.105 316.815,18.698 314.202,21.058 C311.586,23.415 309.435,26.457 307.53,30.402 L310.721,31.947 L314.262,32.096 L310.721,31.947 L313.911,33.491 C315,31.242 316.085,29.523 317.211,28.153 C318.905,26.105 320.678,24.775 323.089,23.555 C325.494,22.344 328.556,21.311 332.457,20.116 L332.448,20.119 C334.859,19.389 336.82,17.957 338.135,16.2 C339.452,14.44 340.165,12.372 340.17,10.262 C340.17,9.227 339.993,8.18 339.605,7.175 C339.033,5.671 337.943,4.272 336.461,3.34 C334.981,2.398 333.182,1.939 331.281,1.943 C328.782,1.95 326.072,2.68 323.028,4.158 L323.031,4.157 C319.165,6.033 316.219,8.797 314.037,11.773 C310.76,16.25 309.105,21.195 308.203,25.034 C307.309,28.877 307.187,31.64 307.179,31.796 C307.108,33.475 308.226,34.974 309.855,35.384 C311.485,35.794 313.179,35.003 313.911,33.491 L310.721,31.947" fill="#5CA7D0"/>
    <path d="M48.494,72.22 C48.494,72.22 39.744,56.173 25.236,56.188 C9.846,56.251 14.533,69.024 23.182,67.657 C34.025,65.923 39.893,65.54 48.494,72.22" fill="#5CA7D0"/>
    <path d="M48.494,72.22 L51.606,70.522 C51.502,70.342 49.189,66.089 44.821,61.7 C42.633,59.509 39.921,57.276 36.653,55.555 C33.393,53.837 29.542,52.641 25.257,52.643 L25.257,55.88 L25.313,52.644 L25.257,52.643 L25.257,55.88 L25.313,52.644 C25.309,52.646 25.118,52.628 24.744,52.678 L25.236,56.188 L25.222,52.644 C23.17,52.652 21.354,52.859 19.738,53.258 C17.325,53.857 15.314,54.906 13.853,56.453 C13.127,57.222 12.555,58.111 12.179,59.058 C11.802,60.003 11.622,61 11.623,61.968 C11.623,63.27 11.939,64.515 12.474,65.627 C13.279,67.298 14.566,68.698 16.184,69.703 C17.801,70.706 19.772,71.304 21.896,71.303 C22.499,71.303 23.111,71.255 23.727,71.16 L23.742,71.157 C27.639,70.531 30.761,70.116 33.394,70.119 C35.713,70.123 37.645,70.413 39.655,71.135 C41.661,71.86 43.788,73.054 46.319,75.019 C47.646,76.049 49.511,76.008 50.791,74.92 C52.071,73.831 52.411,71.998 51.606,70.522 L48.494,72.22 L50.669,69.42 C47.721,67.129 44.925,65.5 42.064,64.467 C39.206,63.43 36.328,63.025 33.394,63.03 C30.039,63.033 26.599,63.523 22.622,64.157 L22.637,64.154 C22.374,64.195 22.128,64.213 21.896,64.213 C20.828,64.212 20.007,63.827 19.452,63.326 C19.177,63.077 18.981,62.802 18.865,62.56 C18.748,62.315 18.712,62.113 18.712,61.968 C18.716,61.82 18.737,61.725 18.815,61.579 C18.876,61.47 18.979,61.326 19.195,61.143 C19.516,60.872 20.108,60.517 21.1,60.232 C22.088,59.947 23.464,59.739 25.251,59.733 C25.398,59.732 25.583,59.719 25.729,59.699 L25.247,56.263 L25.247,59.732 C25.325,59.732 25.487,59.732 25.729,59.699 L25.247,56.263 L25.247,59.732 L25.247,56.494 L25.191,59.732 L25.247,59.732 L25.247,56.494 L25.191,59.732 L25.257,59.732 C28.22,59.734 30.898,60.542 33.353,61.83 C37.027,63.752 40.115,66.803 42.218,69.389 C43.271,70.679 44.082,71.845 44.619,72.671 C44.888,73.084 45.088,73.413 45.216,73.629 C45.28,73.737 45.326,73.818 45.354,73.867 L45.382,73.916 L48.494,72.22 L50.669,69.42 L48.494,72.22" fill="#5CA7D0"/>
    <path d="M79.119,43.399 C79.119,43.399 78.283,25.158 65.244,18.798 C51.416,12.095 50.002,25.618 58.408,28.212 C68.869,31.408 74.338,33.626 79.119,43.399" fill="#5CA7D0"/>
    <path d="M79.119,43.399 L82.66,43.237 C82.645,43.028 82.429,38.192 80.424,32.332 C79.416,29.403 77.955,26.207 75.77,23.227 C73.591,20.253 70.652,17.489 66.798,15.612 L66.79,15.608 C63.751,14.139 61.046,13.414 58.552,13.408 C57.281,13.407 56.064,13.606 54.949,14.022 C53.274,14.636 51.856,15.781 50.961,17.181 C50.056,18.581 49.653,20.178 49.654,21.727 C49.659,23.837 50.372,25.906 51.687,27.665 C53,29.424 54.955,30.86 57.362,31.599 L57.373,31.602 C59.961,32.392 62.185,33.108 64.087,33.857 C66.95,34.987 69.043,36.154 70.853,37.778 C72.659,39.405 74.275,41.572 75.935,44.957 C76.673,46.466 78.37,47.25 79.998,46.833 C81.625,46.417 82.737,44.915 82.66,43.237 L79.119,43.399 L82.303,41.841 C81.015,39.207 79.634,36.988 78.07,35.095 C75.731,32.249 72.967,30.206 69.883,28.674 C66.793,27.133 63.404,26.034 59.444,24.822 L59.454,24.825 C58.447,24.51 57.797,23.99 57.359,23.412 C56.923,22.837 56.739,22.19 56.744,21.727 C56.744,21.5 56.783,21.321 56.832,21.194 C56.915,21.002 56.977,20.918 57.162,20.792 C57.351,20.676 57.737,20.501 58.552,20.497 C59.601,20.491 61.345,20.842 63.698,21.988 L63.69,21.984 C66.356,23.286 68.411,25.188 70.055,27.423 C72.518,30.762 73.958,34.858 74.717,38.105 C75.099,39.726 75.317,41.129 75.438,42.108 C75.498,42.597 75.534,42.979 75.555,43.23 C75.565,43.356 75.571,43.448 75.575,43.504 L75.578,43.561 L79.119,43.399 L82.303,41.841 L79.119,43.399" fill="#5CA7D0"/>
    <path d="M133.244,100.751 C146.291,133.767 208.268,169.798 256.346,170.79 C304.361,171.782 321.354,198.79 323.369,207.806 C323.369,207.806 333.369,197.813 333.369,171.782 C333.369,145.79 279.354,78.767 212.283,77.743 C145.26,76.751 133.244,100.751 133.244,100.751" fill="#48402C"/>
    <path d="M133.244,100.751 L129.947,102.054 C133.491,110.991 140.127,119.76 148.771,128.044 C161.747,140.455 179.31,151.764 198.276,160.141 C217.247,168.506 237.606,173.94 256.273,174.334 C279.627,174.828 295.063,181.581 304.959,189.108 C309.904,192.876 313.462,196.857 315.879,200.368 C317.086,202.122 318.008,203.758 318.67,205.171 C319.333,206.581 319.733,207.781 319.91,208.579 C320.191,209.836 321.141,210.849 322.379,211.209 C323.617,211.569 324.963,211.224 325.875,210.313 C326.146,210.043 328.925,207.171 331.62,200.968 C334.318,194.768 336.917,185.25 336.914,171.782 C336.906,167.921 335.943,163.681 334.24,159.084 C331.246,151.055 325.921,141.925 318.684,132.604 C307.824,118.639 292.65,104.283 274.48,93.256 C256.318,82.24 235.12,74.549 212.337,74.198 C210.962,74.178 209.609,74.167 208.278,74.167 C176.108,74.167 156.748,80.001 145.283,86.102 C139.555,89.15 135.815,92.264 133.481,94.696 C131.146,97.128 130.219,98.873 130.074,99.164 C129.621,100.07 129.575,101.111 129.947,102.054 L133.244,100.751 L136.414,102.337 L134.221,101.239 L136.395,102.375 L136.414,102.337 L134.221,101.239 L136.395,102.375 L136.055,102.198 L136.392,102.381 L136.395,102.375 L136.055,102.198 L136.392,102.381 C136.459,102.284 139.241,97.128 149.585,91.856 C159.928,86.595 177.921,81.257 208.278,81.257 C209.573,81.257 210.89,81.267 212.23,81.288 C228.409,81.534 243.866,85.763 257.987,92.419 C279.162,102.394 297.291,117.858 310.018,133.144 C316.382,140.781 321.395,148.371 324.772,155.125 C326.46,158.5 327.739,161.665 328.582,164.491 C329.427,167.316 329.827,169.805 329.824,171.782 C329.822,184.345 327.42,192.839 325.118,198.143 C323.965,200.794 322.834,202.649 322.025,203.809 C321.62,204.389 321.296,204.795 321.089,205.039 C320.986,205.161 320.913,205.243 320.874,205.286 L320.841,205.32 L321.956,206.391 L320.864,205.298 L320.841,205.32 L321.956,206.391 L320.864,205.298 L323.369,207.806 L326.828,207.032 C326.501,205.576 325.93,203.959 325.09,202.163 C323.619,199.028 321.316,195.366 317.994,191.579 C313.013,185.904 305.729,179.97 295.622,175.386 C285.515,170.801 272.603,167.578 256.419,167.246 C244.826,167.009 232.243,164.643 219.73,160.69 C200.958,154.768 182.344,145.276 167.344,134.298 C159.843,128.811 153.246,122.956 147.978,117.033 C142.707,111.113 138.779,105.123 136.541,99.448 L133.244,100.751 L136.414,102.337 L133.244,100.751" fill="#48402C"/>
    <path d="M141.26,100.751 C141.26,100.751 145.26,158.782 110.236,179.782 C75.26,200.79 72.229,210.813 72.229,217.813 C72.229,217.813 56.197,206.806 58.213,168.798 C60.205,130.767 141.26,100.751 141.26,100.751" fill="#48402C"/>
    <path d="M141.26,100.751 L137.723,100.995 L137.724,101.005 C137.735,101.172 137.853,103.06 137.853,106.159 C137.858,113.392 137.193,127.242 133.107,141.146 C131.069,148.099 128.182,155.056 124.163,161.226 C120.14,167.401 115.012,172.783 108.413,176.742 L108.411,176.743 C90.751,187.361 80.984,195.254 75.421,201.748 C72.645,204.996 70.923,207.931 69.923,210.645 C68.917,213.352 68.678,215.81 68.684,217.813 L72.229,217.813 L74.235,214.891 L73.363,216.162 L74.267,214.913 L74.235,214.891 L73.363,216.162 L74.267,214.913 C74.223,214.878 71.098,212.618 67.943,206.576 C64.794,200.53 61.587,190.661 61.582,175.261 C61.582,173.263 61.637,171.171 61.753,168.986 L61.753,168.983 C61.97,164.85 63.262,160.737 65.473,156.638 C69.329,149.468 76.039,142.438 84.004,136.082 C95.943,126.53 110.623,118.474 122.275,112.862 C128.102,110.053 133.175,107.849 136.781,106.351 C138.585,105.602 140.021,105.03 141.002,104.646 C141.493,104.455 141.87,104.31 142.121,104.214 C142.247,104.166 142.342,104.131 142.404,104.107 L142.491,104.075 L141.26,100.751 L137.723,100.995 L141.26,100.751 L140.029,97.426 C139.912,97.474 119.507,105.02 98.665,117.47 C88.241,123.704 77.698,131.152 69.479,139.659 C65.371,143.916 61.84,148.445 59.234,153.271 C56.631,158.092 54.954,163.237 54.673,168.612 L54.673,168.609 C54.55,170.918 54.493,173.134 54.493,175.261 C54.488,192.172 58.167,203.445 62.017,210.531 C65.862,217.621 69.842,220.478 70.222,220.735 C71.303,221.477 72.719,221.561 73.88,220.95 C75.04,220.339 75.773,219.125 75.773,217.813 C75.779,216.317 75.919,214.896 76.574,213.099 C77.071,211.753 77.88,210.187 79.249,208.318 C81.299,205.518 84.619,202.056 89.879,197.844 C95.136,193.631 102.323,188.669 112.062,182.821 L112.059,182.822 C119.716,178.232 125.611,171.999 130.104,165.094 C136.846,154.726 140.508,142.849 142.539,132.15 C144.564,121.448 144.942,111.902 144.943,106.159 C144.943,102.661 144.801,100.576 144.796,100.507 C144.719,99.396 144.119,98.377 143.184,97.773 C142.249,97.169 141.073,97.04 140.029,97.426 L141.26,100.751" fill="#48402C"/>
    <path d="M119.966,165.541 C120.072,165.703 121.606,168.183 124.37,170.784 C125.756,172.082 127.458,173.418 129.507,174.467 C131.549,175.512 133.973,176.27 136.66,176.269 C139.126,176.276 141.766,175.609 144.319,174.153 C146.881,172.699 149.368,170.496 151.802,167.432 C153.019,165.898 152.763,163.668 151.229,162.451 C149.696,161.234 147.467,161.49 146.249,163.023 C144.249,165.543 142.407,167.088 140.821,167.987 C139.227,168.883 137.901,169.174 136.66,169.18 C135.315,169.18 134.012,168.806 132.733,168.154 C130.822,167.186 129.053,165.568 127.832,164.183 C127.219,163.493 126.739,162.868 126.422,162.431 C126.264,162.211 126.147,162.04 126.074,161.93 L125.998,161.814 L125.985,161.795 L124.876,162.495 L125.991,161.804 L125.985,161.795 L124.876,162.495 L125.991,161.804 C124.958,160.14 122.773,159.628 121.109,160.661 C119.446,161.693 118.934,163.878 119.966,165.542" fill="#2D2118"/>
  </g>
</svg>
